<?xml version="1.0" encoding="utf-8"?>
<svg id="master-artboard" viewBox="0 0 548 390" version="1.1" xmlns="http://www.w3.org/2000/svg" x="0px" y="0px" style="enable-background:new 0 0 548 390;" width="548px" height="390px"><defs><path id="text-path-0" d="M 161 285.1712341308594 A 100 -100 0 0 0 437.375 285.1712341308594 A 100 -100 0 0 0 161 285.1712341308594" style="fill: none; stroke: red; stroke-width: 2;"/></defs><rect id="ee-background" x="0" y="0" width="548" height="390" style="fill: white; fill-opacity: 0; pointer-events: none;"/>



<g transform="matrix(0.9152651073109671, 0, 0, 0.9152651073109671, 66.34225910447178, -20.43370803862934)"><g transform="matrix(1, 0, 0, 1, -203.83877563476562, 28.790786743164062)"><path d="M 563.5 166.5 A 138.100006 138.100006 0 0 1 425.399994 304.600006 A 138.100006 138.100006 0 0 1 287.299988 166.5 A 138.100006 138.100006 0 0 1 425.399994 28.399994 A 138.100006 138.100006 0 0 1 563.5 166.5 Z" class="st16" style="fill: rgb(255, 255, 255);" transform="matrix(1, 0, 0, 1, 3.637978807091713e-12, 9.094947017729282e-13)"/><path d="M 513.899994 166.5 A 88.5 88.5 0 0 1 425.399994 255 A 88.5 88.5 0 0 1 336.899994 166.5 A 88.5 88.5 0 0 1 425.399994 78 A 88.5 88.5 0 0 1 513.899994 166.5 Z" class="st26" style="fill: rgb(235, 235, 236);" transform="matrix(1, 0, 0, 1, 3.637978807091713e-12, 9.094947017729282e-13)"/><path class="st27" d="M554.9,162.2c0,0-8.1-22-20.4-24.1c-6.2-18.3-17.5-31-32.9-36.1c-1.1-0.4-10.5-3.8-21.8-3.8&#10;&#9;&#9;&#9;c-5.3,0-10.3,0.8-14.8,2.2c-6.6,2.2-10.1,3.3-14.3,5.8c-5.3-5.9-13-9.6-21.6-9.6c-7.6,0-14.5,2.9-19.7,7.7c-1.1-0.5-2.2-1-3.3-1.5&#10;&#9;&#9;&#9;c-4.4-1.9-9.7-3-14-1.5c-5.9-3.6-10.7-7.2-13.9-11l-6.4,17.4H367c-3.6-1.1-7.2-2.2-10.9-2c-4.8,0.3-10,3.8-9.8,8.6l-1,2.1&#10;&#9;&#9;&#9;c0.4,0.8,0.9,1.5,1.4,2.2c-1.1,2.3-1.7,4.9-1.7,7.6v29.9c-11.1,4.1-19,14.8-19,27.3c0,8.6,3.8,16.4,9.7,21.7l-7.6,20.6&#10;&#9;&#9;&#9;c0,0,6.8,1.8,17.7,5c2.3,7.7,9.3,16.1,16.5,18.7c3.9,5.6,9.8,10.1,15.3,10.1h35.6h0.1c0.9-1.5,1.9-3.1,3-4.5&#10;&#9;&#9;&#9;c0.1-0.1,0.2-0.2,0.2-0.3c0.5-0.6,1.1-1.3,1.7-1.9c0.1-0.1,0.1-0.1,0.2-0.2c0.6-0.6,1.2-1.2,1.9-1.8c4.5-3.8,10.2-6.1,17-4.8&#10;&#9;&#9;&#9;c-0.7-5.2,1.1-10.4,3.9-14.5c0.4-0.1,0.9-0.2,1.3-0.3c5.9-1.4,12.1-4.4,14.7-9.8c6-1.8,12.5-2.2,18.1,0.6c0-4.2,0.9-8.2,2.6-11.9&#10;&#9;&#9;&#9;c1.8,0.1,3.6,0.2,5.3,0c0.5-2.7,1.4-5.4,2.5-7.9c0.2-0.4,0.3-0.7,0.5-1.1c0-0.1,0.1-0.2,0.1-0.3c0.2-0.5,0.5-0.9,0.7-1.4&#10;&#9;&#9;&#9;c0,0,0,0,0-0.1c0.2-0.4,0.5-0.8,0.7-1.2c0.1-0.2,0.2-0.3,0.3-0.5c0.2-0.3,0.3-0.5,0.5-0.8c0.1-0.2,0.3-0.4,0.4-0.6&#10;&#9;&#9;&#9;c0.1-0.1,0.2-0.3,0.3-0.4c1-0.8,2.1-1.4,3.2-2.1c7.9-3.5,16.4-4.2,24.6-2c3.3-5.3,7.9-9.8,13.2-12.5c0,0,1.6-0.7,1.6-0.7&#10;&#9;&#9;&#9;c0.2-0.1,0.4-0.2,0.6-0.2c0.5-0.2,2-0.8,2-0.8l1-8.3c0-0.2-0.1-0.4-0.1-0.6C541.2,164.5,547.8,162,554.9,162.2z" style="fill: rgb(226, 227, 228);" transform="matrix(1, 0, 0, 1, 3.637978807091713e-12, 9.094947017729282e-13)"/><path class="st28" d="M379.9,219.6c-5.2,1-11,2.8-13.3,7.5l0.9,1.9c-0.2,4.4,4.4,7.6,8.8,7.9c4.3,0.3,8.5-1.4,12.8-2.5&#10;&#9;&#9;&#9;&#9;&#9;&#9;c2-0.5,4.1-0.8,6.1-0.8c0.5-1.3,1-2.7,1.7-4c2.4-4.7,5.9-9.5,10.5-12.7c-0.4,0-0.7,0-1.1,0.1&#10;&#9;&#9;&#9;&#9;&#9;&#9;C397.4,217.4,388.6,217.9,379.9,219.6z" style="fill: rgb(163, 208, 119);" transform="matrix(1, 0, 0, 1, 5.4569682106375694e-12, 1.3642420526593924e-12)"/><path class="st29" d="M379,233.8c4-2.2,8.4-3.8,12.3-6.1c0.4-0.2,0.1-0.9-0.3-0.8c-4.4,0.9-8.7,3.6-12.4,6.1&#10;&#9;&#9;&#9;&#9;&#9;C378.1,233.4,378.5,234.1,379,233.8L379,233.8z" style="fill: rgb(121, 156, 90);" transform="matrix(1, 0, 0, 1, 5.4569682106375694e-12, 1.3642420526593924e-12)"/><path class="st30" d="M405,225.3c-2.4,2.7-4,5.9-4.3,9.8c-12.4-3.3-35.2-6-47.4-12.5c0,9.4,10.5,22.6,19.9,22.6h35.6&#10;&#9;&#9;&#9;&#9;&#9;C405.9,239.1,404.4,231.9,405,225.3z" style="fill: rgb(162, 136, 106);" transform="matrix(1, 0, 0, 1, 7.275957614183426e-12, 1.8189894035458565e-12)"/><path class="st30" d="M530.4,163.3l1-8.3c0,0-2.5,0.3-4.3,0.9l-0.9,9.1c0,0,1.6-0.7,1.6-0.7c0.2-0.1,0.4-0.2,0.6-0.2&#10;&#9;&#9;&#9;&#9;&#9;C528.9,163.8,530.4,163.3,530.4,163.3z" style="fill: rgb(162, 136, 106);" transform="matrix(1, 0, 0, 1, 7.275957614183426e-12, 1.8189894035458565e-12)"/><path class="st31" d="M506,162.3c-15.2,4.3-42.3,9.8-42.3,30.4c-17.4-1.1-38,3.3-38,25c-7.4-0.7-15.7,2-20.7,7.6&#10;&#9;&#9;&#9;&#9;&#9;c-0.6,6.6,0.8,13.8,3.9,19.9h0.1c0.9-1.5,1.9-3.1,3-4.5c0.1-0.1,0.2-0.2,0.2-0.3c0.5-0.6,1.1-1.3,1.7-1.9&#10;&#9;&#9;&#9;&#9;&#9;c0.1-0.1,0.1-0.1,0.2-0.2c0.6-0.6,1.2-1.2,1.9-1.8c4.5-3.8,10.2-6.1,17-4.8c-1.1-8.7,4.3-17.4,10.9-20.6&#10;&#9;&#9;&#9;&#9;&#9;c7.6-4.3,18.5-7.6,27.1-3.3c0-11.9,7.6-22.8,17.4-28.2c7.9-3.5,16.4-4.2,24.6-2c3.3-5.3,7.9-9.8,13.2-12.5c0,0,0.9-5.6,0.9-9.1&#10;&#9;&#9;&#9;&#9;&#9;C519.7,158.6,512,159.9,506,162.3z" style="fill: rgb(216, 197, 163);" transform="matrix(1, 0, 0, 1, 7.275957614183426e-12, 1.8189894035458565e-12)"/><path class="st32" d="M375.9,122.4h75.5l1.1-0.8c4.4-3.1,6.4-3.8,14.2-6.4c3.2-1.1,6.9-1.6,10.9-1.6c8.8,0,16.3,2.6,17.1,2.9&#10;&#9;&#9;&#9;&#9;&#9;&#9;l0.7,0.3h0.2c14.5,5.1,24.1,19.6,27.5,40.7c2.6-1.3,5.4-2.3,8.4-2.6c-4.3-24.1-16-40.6-33.7-46.5c-1-0.4-9.7-3.5-20.1-3.5&#10;&#9;&#9;&#9;&#9;&#9;&#9;c-4.9,0-9.5,0.7-13.6,2.1c-7.1,2.4-10.3,3.4-15.3,6.7h-78.4c-9.4,0-17,7.6-17,17v89.9c0,9.4,7.6,17,17,17H406&#10;&#9;&#9;&#9;&#9;&#9;&#9;c1.8-3.2,4.2-6.2,7.1-8.7h-37.2c-7.7,0-13.9-6.2-13.9-13.9v-78.7C362,128.7,368.2,122.4,375.9,122.4z" style="fill: rgb(200, 166, 129);" transform="matrix(1, 0, 0, 1, 9.094947017729282e-12, 2.2453150450019166e-12)"/><path class="st33" d="M430,224.2c-1.1-8.7,4.3-17.4,10.9-20.6c7.6-4.3,18.5-7.6,27.1-3.3c0-11.9,7.6-22.8,17.4-28.2&#10;&#9;&#9;&#9;&#9;&#9;&#9;c7.9-3.5,16.4-4.2,24.6-2c4.1-6.6,10.1-11.9,17.2-14.1c-4.1-23.4-15.5-38.3-30.9-43.4l0,0c0,0-16.4-6.2-30.9-1.4&#10;&#9;&#9;&#9;&#9;&#9;&#9;c-7.8,2.6-10.3,3.5-15.3,6.9h-75.4c-9.4,0-17,7.6-17,17v40.6v40.6c0,9.4,7.6,17,17,17h34.3C413.7,227.2,420.9,222.5,430,224.2z&#10;&#9;&#9;&#9;&#9;&#9;&#9;" style="fill: rgb(245, 226, 193);" transform="matrix(1, 0, 0, 1, 9.094947017729282e-12, 2.2453150450019166e-12)"/><path class="st34" d="M373.7,76.1l-49.9,135.3c0,0,39.8,10.8,82,24.3c5.1-3.8,11.4-5.8,18.8-4.5c-1.3-10.4,5.2-20.9,13-24.8&#10;&#9;&#9;&#9;&#9;c9.1-5.2,22.2-9.1,32.6-3.9c0-14.4,9.1-27.4,20.9-33.9c9.4-4.2,19.7-5,29.5-2.5c6.6-10.6,17.5-18.6,29.9-18.3&#10;&#9;&#9;&#9;&#9;c0,0-10.4-28-25.3-23.8C508,128.9,397.8,103.8,373.7,76.1z" style="fill: rgb(250, 242, 144);" transform="matrix(1, 0, 0, 1, 5.4569682106375694e-12, 1.3642420526593924e-12)"/><path class="st35" d="M453.8,111.3c-0.1-16-13.1-29-29.1-29c-16,0-29,13-29.1,29H453.8z" style="fill: rgb(240, 87, 86);" transform="matrix(1, 0, 0, 1, 7.275957614183426e-12, 1.8189894035458565e-12)"/><path class="st36" d="M400.5,111.3h23l-1.3-21.7C410,90.6,400.5,98.9,400.5,111.3z" style="fill: rgb(243, 128, 106);" transform="matrix(1, 0, 0, 1, 7.275957614183426e-12, 1.8189894035458565e-12)"/><path class="st36" d="M427.5,89.7l-0.8,21.7H449C448.9,98.9,439.5,90.8,427.5,89.7z" style="fill: rgb(243, 128, 106);" transform="matrix(1, 0, 0, 1, 7.275957614183426e-12, 1.8189894035458565e-12)"/><path class="st28" d="M341.9,100c-0.1-4.8,5-8.3,9.8-8.6c4.8-0.3,9.4,1.7,14.1,3s10,1.7,13.9-1.1c1.8-1.3,3.1-3.3,4.9-4.6&#10;&#9;&#9;&#9;&#9;&#9;&#9;c4.7-3.6,11.6-2.4,17-0.1c5.5,2.3,10.8,5.7,16.7,6c5.8,0.3,11.5-2.3,17.2-1.3c4,0.7,9.6,5.6,13.4,4&#10;&#9;&#9;&#9;&#9;&#9;&#9;c-7.6,8.8-19.5,12.8-30.8,15.5c-10.9,2.7-22.3,2-33.5,1.2c-9.8-0.7-19.5-1.4-29.1-3.3c-5.8-1.2-12.1-3.3-14.7-8.6" style="fill: rgb(163, 208, 119);" transform="matrix(1, 0, 0, 1, 7.275957614183426e-12, 1.8189894035458565e-12)"/><path class="st29" d="M394.6,91.1c1.4,4.4,3.1,9.9,2.1,14.5c-0.1,0.6-1,0.5-1.1,0c-1.4-4.5-1.2-9.6-2-14.3&#10;&#9;&#9;&#9;&#9;&#9;C393.5,90.7,394.4,90.5,394.6,91.1L394.6,91.1z" style="fill: rgb(121, 156, 90);" transform="matrix(1, 0, 0, 1, 7.275957614183426e-12, 1.8189894035458565e-12)"/><path class="st29" d="M354.7,94.9c4.4,2.5,9.2,4.4,13.5,7c0.5,0.3,0.1,1-0.4,0.9c-4.9-1.1-9.6-4.1-13.6-7&#10;&#9;&#9;&#9;&#9;&#9;C353.7,95.3,354.1,94.5,354.7,94.9L354.7,94.9z" style="fill: rgb(121, 156, 90);" transform="matrix(1, 0, 0, 1, 7.275957614183426e-12, 1.8189894035458565e-12)"/><path class="st29" d="M430,96.8c-3,2-6.3,4.8-10.1,4.6c-0.5,0-0.8-0.7-0.4-1c2.8-2.3,6.7-3,9.9-4.6&#10;&#9;&#9;&#9;&#9;&#9;C430.1,95.3,430.7,96.3,430,96.8L430,96.8z" style="fill: rgb(121, 156, 90);" transform="matrix(1, 0, 0, 1, 7.275957614183426e-12, 1.8189894035458565e-12)"/><path class="st35" d="M350.7,140c-16,0.1-29,13.1-29,29.1s13,29,29,29.1V140z" style="fill: rgb(240, 87, 86);" transform="matrix(1, 0, 0, 1, 7.275957614183426e-12, 1.8189894035458565e-12)"/><path class="st36" d="M350.7,193.3v-23l-21.7,1.3C330,183.8,338.2,193.3,350.7,193.3z" style="fill: rgb(243, 128, 106);" transform="matrix(1, 0, 0, 1, 7.275957614183426e-12, 1.8189894035458565e-12)"/><path class="st36" d="M329,166.3l21.7,0.8v-22.3C338.3,144.9,330.1,154.2,329,166.3z" style="fill: rgb(243, 128, 106);" transform="matrix(1, 0, 0, 1, 7.275957614183426e-12, 1.8189894035458565e-12)"/><path class="st35" d="M510.7,169.1c2.7-11.4-0.3-23.9-9.2-32.9l-49.6,49.6c7.4,7.4,17.4,10.7,27,10.1&#10;&#9;&#9;&#9;&#9;&#9;C481.9,180.8,494.5,168.1,510.7,169.1z" style="fill: rgb(240, 87, 86);" transform="matrix(1, 0, 0, 1, 7.275957614183426e-12, 1.8189894035458565e-12)"/><path class="st36" d="M497.4,140.4L477.7,160l15.6,13.8c2.7-1.8,5.7-3.1,8.9-3.9C506.8,160,505.7,148.8,497.4,140.4z" style="fill: rgb(243, 128, 106);" transform="matrix(1, 0, 0, 1, 7.275957614183426e-12, 1.8189894035458565e-12)"/><path class="st36" d="M456.1,181.7c7.3,7.2,16.6,9,25.4,6.4c1.8-4,4.3-7.6,7.3-10.6l-13.7-14.8L456.1,181.7z" style="fill: rgb(243, 128, 106);" transform="matrix(1, 0, 0, 1, 7.275957614183426e-12, 1.8189894035458565e-12)"/><path class="st35" d="M361.8,222.5c9.8,16.6,31.2,22.2,47.9,12.5c16.7-9.7,22.3-31.1,12.7-47.8L361.8,222.5z" style="fill: rgb(240, 87, 86);" transform="matrix(1, 0, 0, 1, 7.275957614183426e-12, 1.8189894035458565e-12)"/><path class="st36" d="M417.3,190.1l-24,14l14.5,21.8C419.9,217.4,424.8,203.1,417.3,190.1z" style="fill: rgb(243, 128, 106);" transform="matrix(1, 0, 0, 1, 7.275957614183426e-12, 1.8189894035458565e-12)"/><path class="st36" d="M402.3,229L390,206l-23.2,13.5C374.4,232.4,389.1,235.2,402.3,229z" style="fill: rgb(243, 128, 106);" transform="matrix(1, 0, 0, 1, 7.275957614183426e-12, 1.8189894035458565e-12)"/><path class="st28" d="M484.7,166.1c3.4,4.3,1.1,11-3.1,14.5c-4.2,3.5-9.7,4.9-14.8,6.9c-5.1,2-10.3,5.2-11.9,10.4&#10;&#9;&#9;&#9;&#9;&#9;&#9;c-0.7,2.4-0.6,5.1-1.3,7.5c-1.9,6.5-8.8,10-15.4,11.6c-6.5,1.6-13.6,2.1-19.2,5.8c-5.4,3.6-8.9,9.9-14.7,12.8&#10;&#9;&#9;&#9;&#9;&#9;&#9;c-4.1,2-12.5,1.5-14.8,5.4c0.9-13.1,9-24.8,17.4-34.9c8.1-9.8,18.9-16.9,29.5-23.7c9.3-6,18.6-11.9,28.6-16.7&#10;&#9;&#9;&#9;&#9;&#9;&#9;c6-2.8,13.2-5.2,19.1-2.2" style="fill: rgb(163, 208, 119);" transform="matrix(1, 0, 0, 1, 7.275957614183426e-12, 1.8189894035458565e-12)"/><path class="st29" d="M443,209.8c-4.2-3-9.5-6.8-11.8-11.7c-0.3-0.6,0.5-1.1,1-0.8c4.3,3.1,7.6,7.9,11.4,11.6&#10;&#9;&#9;&#9;&#9;&#9;C444.3,209.4,443.6,210.2,443,209.8L443,209.8z" style="fill: rgb(121, 156, 90);" transform="matrix(1, 0, 0, 1, 7.275957614183426e-12, 1.8189894035458565e-12)"/><path class="st29" d="M476.6,179.4c-5.7,0.7-11.3,2.3-16.9,2.8c-0.6,0.1-0.8-0.8-0.2-1c5.2-2.3,11.5-2.7,17.1-2.9&#10;&#9;&#9;&#9;&#9;&#9;C477.2,178.3,477.3,179.3,476.6,179.4L476.6,179.4z" style="fill: rgb(121, 156, 90);" transform="matrix(1, 0, 0, 1, 7.275957614183426e-12, 1.8189894035458565e-12)"/><path class="st29" d="M407.1,228.6c1.3-3.8,2.5-8.6,6.1-11c0.5-0.3,1.2,0,1.1,0.6c-0.9,4-4.1,7.2-5.8,10.9&#10;&#9;&#9;&#9;&#9;&#9;C408,230,406.8,229.5,407.1,228.6L407.1,228.6z" style="fill: rgb(121, 156, 90);" transform="matrix(1, 0, 0, 1, 7.275957614183426e-12, 1.8189894035458565e-12)"/><path class="st30" d="M396.8,214.3c-2.6,2.9-4.3,6.4-4.7,10.6c-13.4-3.6-38.1-6.5-51.3-13.5c0,10.1,11.4,24.5,21.6,24.5H401&#10;&#9;&#9;&#9;&#9;&#9;C397.7,229.2,396.1,221.5,396.8,214.3z" style="fill: rgb(162, 136, 106);" transform="matrix(1, 0, 0, 1, 7.275957614183426e-12, 1.8189894035458565e-12)"/><path class="st30" d="M532.7,147.1l1.1-9c0,0-2.7,0.3-4.6,1l-1,9.9c0,0,1.7-0.8,1.7-0.8c0.2-0.1,0.4-0.2,0.6-0.3&#10;&#9;&#9;&#9;&#9;&#9;C531,147.7,532.7,147.1,532.7,147.1z" style="fill: rgb(162, 136, 106);" transform="matrix(1, 0, 0, 1, 7.275957614183426e-12, 1.8189894035458565e-12)"/><path class="st31" d="M506.2,146c-16.5,4.7-45.9,10.6-45.9,32.9c-18.8-1.2-41.2,3.5-41.2,27.1c-8-0.8-17,2.2-22.4,8.2&#10;&#9;&#9;&#9;&#9;&#9;c-0.7,7.2,0.9,15,4.2,21.6h0.1c1-1.7,2.1-3.3,3.3-4.9c0.1-0.1,0.2-0.2,0.3-0.3c0.6-0.7,1.2-1.4,1.8-2c0.1-0.1,0.1-0.1,0.2-0.2&#10;&#9;&#9;&#9;&#9;&#9;c0.7-0.7,1.3-1.3,2.1-1.9c4.9-4.1,11.1-6.6,18.4-5.2c-1.2-9.4,4.7-18.8,11.8-22.4c8.2-4.7,20-8.2,29.4-3.5&#10;&#9;&#9;&#9;&#9;&#9;c0-12.9,8.2-24.7,18.8-30.6c8.5-3.8,17.8-4.5,26.6-2.2c3.6-5.7,8.5-10.6,14.4-13.6c0,0,1-6.1,1-9.9&#10;&#9;&#9;&#9;&#9;&#9;C521.1,142,512.7,143.4,506.2,146z" style="fill: rgb(216, 197, 163);" transform="matrix(1, 0, 0, 1, 7.275957614183426e-12, 1.8189894035458565e-12)"/><path class="st32" d="M365.2,102.8H447l1.2-0.8c4.8-3.3,7-4.1,15.4-6.9c3.5-1.2,7.5-1.8,11.8-1.8c9.5,0,17.7,2.9,18.5,3.2&#10;&#9;&#9;&#9;&#9;&#9;&#9;l0.8,0.3h0.2c15.7,5.6,26.1,21.2,29.9,44.1c2.8-1.5,5.9-2.4,9.1-2.8c-4.6-26.1-17.4-44-36.6-50.4c-1.1-0.4-10.5-3.8-21.8-3.8&#10;&#9;&#9;&#9;&#9;&#9;&#9;c-5.3,0-10.3,0.8-14.8,2.2c-7.7,2.6-11.2,3.7-16.6,7.3h-85c-10.2,0-18.4,8.3-18.4,18.4v97.4c0,10.2,8.3,18.4,18.4,18.4h38.7&#10;&#9;&#9;&#9;&#9;&#9;&#9;c2-3.4,4.5-6.8,7.7-9.4h-40.3c-8.3,0-15.1-6.8-15.1-15.1v-85.3C350.1,109.6,356.8,102.8,365.2,102.8z" style="fill: rgb(200, 166, 129);" transform="matrix(1, 0, 0, 1, 9.094947017729282e-12, 2.2453150450019166e-12)"/><path class="st33" d="M423.9,213.1c-1.2-9.4,4.7-18.8,11.8-22.4c8.2-4.7,20-8.2,29.4-3.5c0-12.9,8.2-24.7,18.8-30.6&#10;&#9;&#9;&#9;&#9;&#9;&#9;c8.5-3.8,17.8-4.5,26.6-2.2c4.4-7.1,11-12.9,18.6-15.3c-4.5-25.3-16.8-41.5-33.5-47c0,0,0,0,0,0s-17.7-6.7-33.5-1.5&#10;&#9;&#9;&#9;&#9;&#9;&#9;c-8.4,2.8-11.2,3.8-16.6,7.5h-81.7c-10.2,0-18.4,8.3-18.4,18.4v44v44c0,10.2,8.3,18.4,18.4,18.4h37.1&#10;&#9;&#9;&#9;&#9;&#9;&#9;C406.2,216.4,414,211.3,423.9,213.1z" style="fill: rgb(245, 226, 193);" transform="matrix(1, 0, 0, 1, 9.094947017729282e-12, 2.2453150450019166e-12)"/><path class="st32" d="M381.8,117.9c0.1-0.1,0.1-0.3,0.1-0.5c0.1-0.6,0-1.2-0.5-1.5c-0.1-0.1-0.2-0.3-0.4-0.4&#10;&#9;&#9;&#9;&#9;&#9;&#9;&#9;c-1.4-1-3.4-0.2-4,1.4c-0.6,1.6,0.6,3.1,2.2,3.2C380.5,120.2,381.7,119.2,381.8,117.9z" style="fill: rgb(200, 166, 129);" transform="matrix(1, 0, 0, 1, 9.094947017729282e-12, 2.2453150450019166e-12)"/><path class="st32" d="M424,124.1c0-0.2,0-0.3,0-0.5c0-0.6-0.4-1.3-1.1-1.4c-0.6-0.1-1.2-0.1-1.7,0.3c-0.5,0.4-0.9,0.9-1,1.5&#10;&#9;&#9;&#9;&#9;&#9;&#9;&#9;c-0.1,0.4-0.1,0.8,0.1,1.1c0.2,0.4,0.5,0.5,0.9,0.7c0.6,0.2,1.3,0.1,1.9-0.1C423.7,125.5,424,124.8,424,124.1&#10;&#9;&#9;&#9;&#9;&#9;&#9;&#9;C424,124.2,424,124.1,424,124.1z" style="fill: rgb(200, 166, 129);" transform="matrix(1, 0, 0, 1, 9.094947017729282e-12, 2.2453150450019166e-12)"/><path class="st32" d="M462.9,123.8c0.8-0.5,1-1.4,0.9-2.3c-0.1-0.4-0.3-0.7-0.6-1c-0.1,0-0.1-0.1-0.2-0.1c0,0,0,0,0,0&#10;&#9;&#9;&#9;&#9;&#9;&#9;&#9;c0,0,0,0,0,0c-0.1-0.1-0.2-0.1-0.3-0.2c0,0-0.1,0-0.1,0c-0.1,0-0.1,0-0.2-0.1c-0.3-0.1-0.6,0-0.9,0c0,0,0,0,0,0&#10;&#9;&#9;&#9;&#9;&#9;&#9;&#9;c-0.2,0-0.5,0.2-0.7,0.3c-0.1,0.1-0.2,0.2-0.3,0.3c-0.5,0.7-0.7,1.7-0.2,2.4c0.3,0.4,0.6,0.7,1.1,0.8&#10;&#9;&#9;&#9;&#9;&#9;&#9;&#9;C461.9,124.2,462.5,124.1,462.9,123.8z" style="fill: rgb(200, 166, 129);" transform="matrix(1, 0, 0, 1, 9.094947017729282e-12, 2.2453150450019166e-12)"/><path class="st32" d="M472.2,166.8c-0.2,0.2-0.4,0.5-0.5,0.7C471.9,167.3,472.1,167.1,472.2,166.8z" style="fill: rgb(200, 166, 129);" transform="matrix(1, 0, 0, 1, 9.094947017729282e-12, 2.2453150450019166e-12)"/><path class="st32" d="M472.3,166c0-0.1,0-0.3,0-0.4c0-0.7-0.4-1.1-0.9-1.3c-0.4-0.3-1.1-0.4-1.6-0.1c-0.1,0-0.2,0.1-0.3,0.2&#10;&#9;&#9;&#9;&#9;&#9;&#9;&#9;c-0.5,0.2-1,0.6-1.4,1.1c-0.4,0.7-0.1,1.6,0.5,2c0.4,0.6,1.1,0.8,1.7,0.9c0.5,0,1-0.3,1.2-0.7c0,0,0,0,0.1,0&#10;&#9;&#9;&#9;&#9;&#9;&#9;&#9;c0.2-0.2,0.4-0.5,0.5-0.7c0.1-0.1,0.1-0.3,0.1-0.5C472.3,166.2,472.3,166.1,472.3,166z" style="fill: rgb(200, 166, 129);" transform="matrix(1, 0, 0, 1, 9.094947017729282e-12, 2.2453150450019166e-12)"/><path class="st32" d="M451.9,140.9c0-0.1,0-0.3,0-0.4c0-0.1,0-0.3,0-0.4c0-0.7-0.4-1.1-0.9-1.3c-0.4-0.3-1.1-0.4-1.6-0.1&#10;&#9;&#9;&#9;&#9;&#9;&#9;&#9;c-0.1,0-0.2,0.1-0.3,0.2c-0.5,0.2-1,0.6-1.4,1.1c-0.4,0.7-0.1,1.6,0.5,2c0.4,0.6,1.1,0.8,1.7,0.9c0.5,0,1-0.3,1.2-0.7&#10;&#9;&#9;&#9;&#9;&#9;&#9;&#9;C451.6,141.8,451.9,141.4,451.9,140.9z" style="fill: rgb(200, 166, 129);" transform="matrix(1, 0, 0, 1, 9.094947017729282e-12, 2.2453150450019166e-12)"/><path class="st32" d="M496.3,130.2c0-0.1-0.1-0.2-0.1-0.3c0,0,0,0,0-0.1c-0.2-0.8-1-1.2-1.8-1c-0.4,0.1-0.7,0.3-1,0.6&#10;&#9;&#9;&#9;&#9;&#9;&#9;&#9;c-0.5,0.3-0.8,0.7-0.9,1.2c-0.1,0.4-0.1,0.8,0.1,1.1c0.1,0.2,0.3,0.3,0.4,0.5c0.6,1,2,0.8,2.7,0.1&#10;&#9;&#9;&#9;&#9;&#9;&#9;&#9;C496.3,131.8,496.6,130.9,496.3,130.2z" style="fill: rgb(200, 166, 129);" transform="matrix(1, 0, 0, 1, 9.094947017729282e-12, 2.2453150450019166e-12)"/><path class="st32" d="M356.3,209.9c0-0.1-0.1-0.2-0.1-0.3c0,0,0,0,0-0.1c-0.2-0.8-1-1.2-1.8-1c-0.4,0.1-0.7,0.3-1,0.6&#10;&#9;&#9;&#9;&#9;&#9;&#9;&#9;c-0.5,0.3-0.8,0.7-0.9,1.2c-0.1,0.4-0.1,0.8,0.1,1.1c0.1,0.2,0.3,0.3,0.4,0.5c0.6,1,2,0.8,2.7,0.1&#10;&#9;&#9;&#9;&#9;&#9;&#9;&#9;C356.3,211.5,356.6,210.6,356.3,209.9z" style="fill: rgb(200, 166, 129);" transform="matrix(1, 0, 0, 1, 9.094947017729282e-12, 2.2453150450019166e-12)"/><path class="st32" d="M372.9,189.4c-0.2-0.2-0.4-0.4-0.7-0.5c-0.3-0.1-0.5-0.2-0.8-0.2c-0.5-0.1-1.1,0-1.5,0.2&#10;&#9;&#9;&#9;&#9;&#9;&#9;&#9;c-0.4,0.2-0.7,0.7-0.7,1.2c-0.2,0.3-0.3,0.6-0.3,1c0,0.5,0.2,0.9,0.5,1.2c0.3,0.3,0.7,0.6,1.1,0.7c0.6,0.1,1.1,0,1.7-0.2&#10;&#9;&#9;&#9;&#9;&#9;&#9;&#9;c0.2-0.1,0.3-0.2,0.5-0.4c0.5-0.4,0.8-1,0.8-1.7c0-0.2-0.1-0.4-0.1-0.6C373.2,189.8,373,189.6,372.9,189.4z" style="fill: rgb(200, 166, 129);" transform="matrix(1, 0, 0, 1, 9.094947017729282e-12, 2.2453150450019166e-12)"/><path class="st32" d="M430.5,159.9c0.3,0.2,0.8,0.3,1.1,0.1c0.2,0,0.3-0.1,0.5-0.2c0.3,0,0.7-0.2,0.9-0.5&#10;&#9;&#9;&#9;&#9;&#9;&#9;&#9;c0.3-0.3,0.5-0.7,0.5-1.1c0-0.5-0.2-0.8-0.5-1.1c-0.5-0.7-1.6-0.8-2.3-0.4c-0.7,0.4-1.2,1.4-0.9,2.3&#10;&#9;&#9;&#9;&#9;&#9;&#9;&#9;C430,159.4,430.1,159.7,430.5,159.9z" style="fill: rgb(200, 166, 129);" transform="matrix(1, 0, 0, 1, 9.094947017729282e-12, 2.2453150450019166e-12)"/><path class="st32" d="M442.4,187.7c0.2,0,0.3-0.1,0.5-0.2c0.3,0,0.6-0.2,0.9-0.4c-0.6,0.2-1.2,0.4-1.8,0.7&#10;&#9;&#9;&#9;&#9;&#9;&#9;&#9;C442.1,187.8,442.2,187.8,442.4,187.7z" style="fill: rgb(200, 166, 129);" transform="matrix(1, 0, 0, 1, 9.094947017729282e-12, 2.2453150450019166e-12)"/><path class="st32" d="M444.2,185.9c0-0.5-0.2-0.8-0.5-1.1c-0.5-0.7-1.6-0.8-2.3-0.4c-0.7,0.4-1.2,1.4-0.9,2.3&#10;&#9;&#9;&#9;&#9;&#9;&#9;&#9;c0.2,0.4,0.3,0.7,0.7,0.9c0.2,0.1,0.4,0.2,0.7,0.2c0.6-0.2,1.2-0.5,1.8-0.7c0,0,0.1,0,0.1-0.1&#10;&#9;&#9;&#9;&#9;&#9;&#9;&#9;C444.1,186.7,444.2,186.3,444.2,185.9z" style="fill: rgb(200, 166, 129);" transform="matrix(1, 0, 0, 1, 9.094947017729282e-12, 2.2453150450019166e-12)"/><path class="st32" d="M404.4,182.3c0.3,0.2,0.8,0.3,1.1,0.1c0.2,0,0.3-0.1,0.5-0.2c0.3,0,0.7-0.2,0.9-0.5&#10;&#9;&#9;&#9;&#9;&#9;&#9;&#9;c0.3-0.3,0.5-0.7,0.5-1.1c0-0.5-0.2-0.8-0.5-1.1c-0.5-0.7-1.6-0.8-2.3-0.4c-0.7,0.4-1.2,1.4-0.9,2.3&#10;&#9;&#9;&#9;&#9;&#9;&#9;&#9;C403.8,181.8,404,182.1,404.4,182.3z" style="fill: rgb(200, 166, 129);" transform="matrix(1, 0, 0, 1, 9.094947017729282e-12, 2.2453150450019166e-12)"/><path class="st32" d="M422.2,204.8c0.5,0,1-0.3,1.3-0.7c0.3-0.5,0.2-1,0-1.5c0,0,0-0.1-0.1-0.1c-0.1-0.3-0.2-0.5-0.4-0.7&#10;&#9;&#9;&#9;&#9;&#9;&#9;&#9;c-0.5-0.5-1.5-0.6-2.1,0c-0.1,0.1-0.2,0.3-0.3,0.5c0,0,0,0,0,0c-0.3,0.5-0.3,1.2,0.1,1.7C421,204.4,421.5,204.8,422.2,204.8z" style="fill: rgb(200, 166, 129);" transform="matrix(1, 0, 0, 1, 9.094947017729282e-12, 2.2453150450019166e-12)"/><path class="st32" d="M376,153.2c-0.1-0.1-0.2-0.1-0.3-0.2c-0.8-0.4-1.5-0.1-2,0.5c-0.6,0.8-0.4,2,0.3,2.7&#10;&#9;&#9;&#9;&#9;&#9;&#9;&#9;c0.5,0.4,1.2,0.6,1.8,0.2c0.6-0.4,1.1-1.1,1.1-1.9C376.8,153.8,376.5,153.4,376,153.2z" style="fill: rgb(200, 166, 129);" transform="matrix(1, 0, 0, 1, 9.094947017729282e-12, 2.2453150450019166e-12)"/><path class="st32" d="M404.4,141c-0.1-0.1-0.2-0.1-0.3-0.2c-0.8-0.4-1.5-0.1-2,0.5c-0.6,0.8-0.4,2,0.3,2.7&#10;&#9;&#9;&#9;&#9;&#9;&#9;&#9;c0.5,0.4,1.2,0.6,1.8,0.2c0.6-0.4,1.1-1.1,1.1-1.9C405.3,141.7,404.9,141.3,404.4,141z" style="fill: rgb(200, 166, 129);" transform="matrix(1, 0, 0, 1, 9.094947017729282e-12, 2.2453150450019166e-12)"/><path class="st31" d="M515.6,183.2c-0.1-0.3-0.5-0.3-0.7-0.1c0.1-0.2,0.2-0.4,0.4-0.5c0-0.1,0-0.1-0.1-0.1c-0.2,0-0.4,0-0.6,0.1&#10;&#9;&#9;&#9;&#9;&#9;c0-0.2,0-0.4-0.1-0.5c-0.1-0.5-1-0.7-1.2-0.2c-0.8,1.7-2.2,6.6,0.7,7.2c0.2,0,0.7,0.1,0.9,0.1c0.2,0.1,0.5,0.1,0.6-0.1&#10;&#9;&#9;&#9;&#9;&#9;C516.6,187.2,516.6,185.1,515.6,183.2z" style="fill: rgb(216, 197, 163);" transform="matrix(1, 0, 0, 1, 5.4569682106375694e-12, 1.3642420526593924e-12)"/><path class="st31" d="M511.2,208.3c1.1-1.5,0.7-4-0.4-5.5c0-0.1,0-0.3-0.1-0.4c-0.1-0.3-0.3-0.6-0.5-0.8&#10;&#9;&#9;&#9;&#9;&#9;c-0.1-0.5-0.3-1.1-0.5-1.6c-0.1-0.2-0.2-0.3-0.3-0.4c0-0.1,0-0.1-0.1-0.2c-0.3-0.9-1.8-0.8-1.8,0.2c0,0.2,0,0.4,0,0.6&#10;&#9;&#9;&#9;&#9;&#9;c-3.1-0.6-6.8,1-4.1,4.5c0.2,0.2,0.3,0.4,0.5,0.6c0,0.3-0.1,0.7,0,0.9c0,0.3,0.1,0.6,0.2,0.8c-0.1,0.1-0.2,0.2-0.3,0.3&#10;&#9;&#9;&#9;&#9;&#9;c-0.2,0.1-0.1,0.4,0.1,0.5c0.2,0.1,0.5,0.3,0.8,0.4c0,0.1,0,0.2,0,0.2c0.1,1.5,0.7,2.4,1.4,3.7c0.3,0.6,1.1,0.6,1.6,0.2&#10;&#9;&#9;&#9;&#9;&#9;c0.5-0.5,0.9-1,1.2-1.6C509.9,210.5,510.8,209.6,511.2,208.3z" style="fill: rgb(216, 197, 163);" transform="matrix(1, 0, 0, 1, 5.4569682106375694e-12, 1.3642420526593924e-12)"/><path class="st31" d="M497.2,216.1c-0.1-2.1-1.3-3.6-3-4.7c-0.4-0.3-1.2-0.1-1.4,0.4c-0.1,0.3-0.2,0.6-0.3,0.8&#10;&#9;&#9;&#9;&#9;&#9;c-0.2,0-0.4,0-0.5,0.1c-0.3-0.2-0.6-0.4-0.9-0.6c-0.6-0.3-1.2,0-1.4,0.6c-0.2,0.7-0.3,1.3-0.3,1.9c-0.4,0-0.8,0.3-0.7,0.7&#10;&#9;&#9;&#9;&#9;&#9;c0.2,0.6,0.5,1.2,0.8,1.8c-0.1,1.6,0.4,3.1,1.9,4.2c0.3,0.2,0.9,0.1,1.1-0.3c0.2-0.5,0.5-1.1,0.6-1.6c1.6,0.3,2.6-0.8,3.1-2.2&#10;&#9;&#9;&#9;&#9;&#9;C496.7,217.2,497.3,216.8,497.2,216.1z" style="fill: rgb(216, 197, 163);" transform="matrix(1, 0, 0, 1, 5.4569682106375694e-12, 1.3642420526593924e-12)"/><path class="st31" d="M514.3,216.5c-0.1-0.1-0.3-0.1-0.5-0.1c-0.4,0.1-0.8,0.2-0.9,0.7c0,0.1,0,0.2,0,0.2c0,0,0,0-0.1,0&#10;&#9;&#9;&#9;&#9;&#9;c-0.1-0.1-0.1-0.1-0.2-0.2c-0.6-0.6-1.5-0.2-1.6,0.5c-0.1,0.1-0.1,0.2-0.2,0.3c-0.1,0.1-0.2,0.3-0.3,0.4c0,0.1-0.1,0.1-0.1,0.2&#10;&#9;&#9;&#9;&#9;&#9;c0,0-0.1,0-0.1,0c-0.4,0.2-0.5,0.6-0.4,1c0.1,0.7,0.9,0.8,1.4,0.5c0.1,0,0.2-0.1,0.2-0.1c0,0.1,0,0.2,0,0.3&#10;&#9;&#9;&#9;&#9;&#9;c0,0.6,0.6,0.9,1.1,0.7c0.4,0.3,1.2,0.3,1.5-0.2c0.6-1,0.6-2.3,0.7-3.4C514.8,217,514.6,216.7,514.3,216.5z M510.3,218.5&#10;&#9;&#9;&#9;&#9;&#9;C510.2,218.7,510.2,218.6,510.3,218.5L510.3,218.5z" style="fill: rgb(216, 197, 163);" transform="matrix(1, 0, 0, 1, 5.4569682106375694e-12, 1.3642420526593924e-12)"/><path class="st31" d="M523,194.6c-0.5,0-1.1,0-1.6,0.1c-0.1-0.3-0.1-0.5-0.1-0.8c0,0,0,0,0,0c0-0.1,0-0.1,0-0.2&#10;&#9;&#9;&#9;&#9;&#9;c-0.2-0.9-1.5-0.6-1.5,0.2c0,0.2,0,0.4,0.1,0.6c-0.1,0.1-0.2,0.2-0.2,0.4c0,0.1,0,0.2,0,0.3c-0.5,0.1-1,0.3-1.5,0.4&#10;&#9;&#9;&#9;&#9;&#9;c-0.7,0.1-0.8,1.1-0.4,1.5c0.8,0.8,1.5,1.4,2.6,1.8c0.3,0.5,0.8,1,1.4,1.3c0.6,0.3,1.2,0,1.4-0.5c0.2-0.1,0.4-0.4,0.4-0.7&#10;&#9;&#9;&#9;&#9;&#9;c-0.1-0.5,0-1-0.1-1.5c0-0.1-0.1-0.1-0.1-0.2c0.2,0.2,0.3,0.3,0.4,0.5c0.4,0.6,1.5,0.6,1.6-0.2C525.5,196,524.9,194.7,523,194.6&#10;&#9;&#9;&#9;&#9;&#9;z" style="fill: rgb(216, 197, 163);" transform="matrix(1, 0, 0, 1, 5.4569682106375694e-12, 1.3642420526593924e-12)"/><path class="st31" d="M534.4,214.1c0.1,0.1,0.4-0.1,0.3-0.2c-0.1-0.3-0.1-0.6,0-1c0.1-0.3,0-0.6-0.2-0.8&#10;&#9;&#9;&#9;&#9;&#9;c-0.3-0.2-0.5-0.3-0.9-0.3c-0.2,0-0.4,0.1-0.5,0.2c-0.3-0.3-0.6-0.7-1-0.9c-0.6-0.4-1.4-0.3-1.7,0.4c0,0.1-0.1,0.3-0.1,0.4&#10;&#9;&#9;&#9;&#9;&#9;c-0.5-0.1-1-0.1-1.5-0.2c-0.8,0-1.2,0.8-0.9,1.5c0.6,1.3,1.2,2.5,2.4,3.4c0.4,0.3,1,0.3,1.4,0c0.1,0,0.2,0.1,0.3,0.1&#10;&#9;&#9;&#9;&#9;&#9;c0.2,0,0.5-0.1,0.7-0.2c0.5,0.7,1.8,0.4,1.8-0.6c0-0.2,0-0.4-0.1-0.7c0.1-0.2,0-0.5-0.1-0.7&#10;&#9;&#9;&#9;&#9;&#9;C534.4,214.3,534.4,214.2,534.4,214.1C534.4,214.1,534.4,214.1,534.4,214.1z" style="fill: rgb(216, 197, 163);" transform="matrix(1, 0, 0, 1, 5.4569682106375694e-12, 1.3642420526593924e-12)"/><path class="st31" d="M521.9,207.7C521.9,207.7,521.9,207.7,521.9,207.7C521.9,207.7,521.9,207.7,521.9,207.7&#10;&#9;&#9;&#9;&#9;&#9;c0-0.1-0.1-0.2-0.1-0.3c-0.1-0.1-0.2-0.2-0.3-0.3c0-0.1,0-0.2,0-0.2c0,0,0,0.1,0,0.1c0-0.3-0.2-0.5-0.5-0.5&#10;&#9;&#9;&#9;&#9;&#9;c-0.4,0-0.6,0.5-0.8,0.9c-0.2,0.4-0.2,0.7-0.2,1.1c0,0.1,0,0.2,0,0.3c0,0.2,0.1,0.4,0.2,0.5c0,0.1,0,0.1,0.1,0.2&#10;&#9;&#9;&#9;&#9;&#9;c0.1,0.3,0.4,0.4,0.6,0.4c0,0,0.1,0.1,0.1,0.2c0.4,0.5,1.5,0.1,1.4-0.6C522.3,208.9,522.1,208.3,521.9,207.7z" style="fill: rgb(216, 197, 163);" transform="matrix(1, 0, 0, 1, 5.4569682106375694e-12, 1.3642420526593924e-12)"/><path class="st31" d="M506.9,234.2c-0.6-0.5-1.4-0.2-1.5,0.6c0,0.1,0,0.3-0.1,0.4c0,0,0,0-0.1,0c-0.3-0.5-0.7-1-1.1-1.5&#10;&#9;&#9;&#9;&#9;&#9;c-0.4-0.5-1-0.5-1.4-0.1c-0.2-0.2-0.5-0.2-0.7,0c-0.8,0.7-1.1,1.7-1,2.7c-0.2,0.9-0.1,1.8,0.8,2.3c0,0,0,0,0,0&#10;&#9;&#9;&#9;&#9;&#9;c0.1,0.1,0.2,0.3,0.2,0.4c0.3,0.4,0.9,0.4,1.2,0c0,0,0,0,0,0c0,0,0.1,0,0.1,0c0.1,0.1,0.2,0.2,0.3,0.3c0.5,0.4,1.3,0.4,1.9,0&#10;&#9;&#9;&#9;&#9;&#9;c0.3-0.2,0.5-0.5,0.6-0.8c0,0,0-0.1,0-0.1c0,0,0-0.1,0-0.1c0,0,0.1,0,0.1-0.1c0.3,0.2,0.6,0.4,0.9,0.5c0.5,0.4,1.3-0.1,1.3-0.7&#10;&#9;&#9;&#9;&#9;&#9;C508.7,236.2,508.3,235.3,506.9,234.2z" style="fill: rgb(216, 197, 163);" transform="matrix(1, 0, 0, 1, 5.4569682106375694e-12, 1.3642420526593924e-12)"/><path class="st31" d="M486.4,255.3c0.3,0,0.5-0.3,0.4-0.6c0.1,0.2,0.2,0.4,0.3,0.5c0,0.1,0.1,0,0.1,0c0.1-0.2,0.1-0.4,0.1-0.6&#10;&#9;&#9;&#9;&#9;&#9;c0.2,0.1,0.3,0.1,0.5,0.2c0.5,0.1,1-0.6,0.7-1c-1.2-1.5-4.9-5-6.8-2.6c-0.1,0.2-0.4,0.6-0.5,0.7c-0.2,0.1-0.3,0.4-0.1,0.6&#10;&#9;&#9;&#9;&#9;&#9;C482.4,254.4,484.3,255.3,486.4,255.3z" style="fill: rgb(216, 197, 163);" transform="matrix(1, 0, 0, 1, 7.275957614183426e-12, 1.8189894035458565e-12)"/><path class="st31" d="M466,240.1c0.9,1.6,3.2,2.4,5.1,2.1c0.1,0,0.3,0.1,0.4,0.1c0.3,0,0.7,0,1-0.1c0.5,0.1,1.1,0.2,1.6,0.3&#10;&#9;&#9;&#9;&#9;&#9;c0.2,0,0.3,0,0.5-0.1c0.1,0,0.1,0,0.2,0c1,0.1,1.5-1.2,0.6-1.7c-0.2-0.1-0.3-0.2-0.5-0.3c1.9-2.5,2.2-6.6-2.2-5.7&#10;&#9;&#9;&#9;&#9;&#9;c-0.2,0.1-0.5,0.1-0.7,0.2c-0.3-0.2-0.6-0.4-0.8-0.5c-0.3-0.1-0.5-0.2-0.8-0.2c0-0.1-0.1-0.2-0.1-0.4c0-0.2-0.3-0.3-0.5-0.2&#10;&#9;&#9;&#9;&#9;&#9;c-0.2,0.2-0.5,0.3-0.7,0.5c-0.1,0-0.1-0.1-0.2-0.1c-1.4-0.6-2.5-0.5-3.9-0.4c-0.6,0-1.1,0.7-0.9,1.3c0.2,0.7,0.5,1.2,0.9,1.8&#10;&#9;&#9;&#9;&#9;&#9;C464.6,238,465,239.2,466,240.1z" style="fill: rgb(216, 197, 163);" transform="matrix(1, 0, 0, 1, 7.275957614183426e-12, 1.8189894035458565e-12)"/><path class="st31" d="M465.3,224.1c2,0.9,3.8,0.5,5.6-0.6c0.5-0.3,0.7-1,0.3-1.5c-0.2-0.2-0.4-0.5-0.6-0.7&#10;&#9;&#9;&#9;&#9;&#9;c0.1-0.2,0.1-0.4,0.1-0.5c0.3-0.1,0.6-0.3,0.9-0.5c0.5-0.4,0.6-1,0.1-1.5c-0.5-0.5-1-0.9-1.6-1.1c0.2-0.3,0.1-0.8-0.4-0.9&#10;&#9;&#9;&#9;&#9;&#9;c-0.6-0.1-1.3-0.1-1.9-0.1c-1.4-0.8-2.9-1.1-4.6-0.1c-0.4,0.2-0.5,0.8-0.2,1.1c0.3,0.4,0.7,0.9,1.2,1.3c-1,1.3-0.4,2.7,0.6,3.7&#10;&#9;&#9;&#9;&#9;&#9;C464.6,223.2,464.7,223.8,465.3,224.1z" style="fill: rgb(216, 197, 163);" transform="matrix(1, 0, 0, 1, 7.275957614183426e-12, 1.8189894035458565e-12)"/><path class="st31" d="M457.3,239.2c0.1-0.1,0.3-0.2,0.3-0.4c0.1-0.4,0.1-0.8-0.2-1.1c-0.1-0.1-0.1-0.1-0.2-0.2c0,0,0,0,0,0&#10;&#9;&#9;&#9;&#9;&#9;c0.1,0,0.2-0.1,0.2-0.1c0.8-0.3,0.8-1.3,0.2-1.7c0-0.1-0.1-0.2-0.1-0.3c-0.1-0.2-0.1-0.3-0.2-0.5c0-0.1-0.1-0.1-0.1-0.2&#10;&#9;&#9;&#9;&#9;&#9;c0,0,0-0.1,0-0.1c0-0.4-0.3-0.7-0.7-0.8c-0.7-0.2-1.1,0.4-1.1,1c0,0.1,0,0.2,0,0.3c-0.1,0-0.2-0.1-0.3-0.1&#10;&#9;&#9;&#9;&#9;&#9;c-0.6-0.3-1.1,0.2-1.1,0.6c-0.5,0.2-0.8,0.9-0.5,1.4c0.6,1,1.8,1.5,2.8,2.1C456.6,239.4,457,239.4,457.3,239.2z M457.3,234.7&#10;&#9;&#9;&#9;&#9;&#9;C457.2,234.5,457.3,234.6,457.3,234.7L457.3,234.7z" style="fill: rgb(216, 197, 163);" transform="matrix(1, 0, 0, 1, 7.275957614183426e-12, 1.8189894035458565e-12)"/><path class="st31" d="M472.9,256.8c0.3-0.5,0.4-1,0.6-1.5c0.3,0.1,0.5,0.1,0.8,0.2c0,0,0,0,0,0c0.1,0,0.1,0.1,0.2,0.1&#10;&#9;&#9;&#9;&#9;&#9;c0.8,0.2,1.2-1,0.5-1.4c-0.2-0.1-0.4-0.1-0.5-0.2c-0.1-0.1-0.1-0.3-0.3-0.4c-0.1-0.1-0.2-0.1-0.3-0.2c0.1-0.5,0.2-1,0.4-1.5&#10;&#9;&#9;&#9;&#9;&#9;c0.2-0.7-0.6-1.2-1.2-1c-1,0.3-1.9,0.7-2.8,1.5c-0.6,0.1-1.2,0.3-1.8,0.6c-0.6,0.4-0.6,1-0.2,1.4c0,0.3,0.2,0.5,0.5,0.6&#10;&#9;&#9;&#9;&#9;&#9;c0.5,0.2,0.9,0.5,1.4,0.6c0.1,0,0.1,0,0.2,0c-0.2,0.1-0.4,0.1-0.7,0.1c-0.7,0.1-1.2,1.1-0.5,1.6&#10;&#9;&#9;&#9;&#9;&#9;C470.6,258.4,472,258.4,472.9,256.8z" style="fill: rgb(216, 197, 163);" transform="matrix(1, 0, 0, 1, 7.275957614183426e-12, 1.8189894035458565e-12)"/><path class="st31" d="M450.4,258.2c-0.1,0.1-0.1,0.3,0.1,0.4c0.4,0,0.6,0.2,0.9,0.4c0.2,0.2,0.5,0.3,0.8,0.2&#10;&#9;&#9;&#9;&#9;&#9;c0.3-0.1,0.5-0.4,0.7-0.7c0.1-0.2,0.1-0.4,0.1-0.6c0.4-0.1,0.9-0.2,1.3-0.4c0.7-0.3,1-1.1,0.4-1.7c-0.1-0.1-0.2-0.2-0.3-0.3&#10;&#9;&#9;&#9;&#9;&#9;c0.3-0.4,0.6-0.8,0.8-1.2c0.4-0.7-0.2-1.4-0.9-1.4c-1.4,0-2.7,0-4.1,0.6c-0.5,0.2-0.7,0.8-0.6,1.2c-0.1,0.1-0.1,0.2-0.2,0.3&#10;&#9;&#9;&#9;&#9;&#9;c-0.1,0.2-0.1,0.5-0.1,0.7c-0.8,0.1-1.2,1.4-0.3,1.8c0.2,0.1,0.4,0.2,0.6,0.2c0.2,0.2,0.4,0.3,0.7,0.3&#10;&#9;&#9;&#9;&#9;&#9;C450.2,258.1,450.3,258.2,450.4,258.2C450.4,258.2,450.4,258.2,450.4,258.2z" style="fill: rgb(216, 197, 163);" transform="matrix(1, 0, 0, 1, 7.275957614183426e-12, 1.8189894035458565e-12)"/><path class="st31" d="M461.7,249.9C461.7,249.9,461.7,249.9,461.7,249.9C461.7,249.9,461.7,249.9,461.7,249.9c0.1,0,0.2,0,0.3,0&#10;&#9;&#9;&#9;&#9;&#9;c0.2,0,0.3-0.1,0.4-0.1c0.1,0,0.1,0.1,0.2,0.1c0,0,0,0-0.1,0c0.2,0.1,0.5,0.1,0.6-0.2c0.1-0.4-0.1-0.8-0.5-1.1&#10;&#9;&#9;&#9;&#9;&#9;c-0.2-0.3-0.5-0.5-0.9-0.7c-0.1-0.1-0.2-0.1-0.2-0.1c-0.2-0.1-0.4-0.1-0.5,0c-0.1,0-0.1,0-0.2,0c-0.3,0-0.5,0.2-0.6,0.4&#10;&#9;&#9;&#9;&#9;&#9;c-0.1,0-0.1,0-0.2,0c-0.7,0.1-0.7,1.2-0.1,1.5C460.5,249.7,461.1,249.9,461.7,249.9z" style="fill: rgb(216, 197, 163);" transform="matrix(1, 0, 0, 1, 7.275957614183426e-12, 1.8189894035458565e-12)"/><path class="st31" d="M444.8,224.6c0.7-0.3,0.8-1.2,0.1-1.6c-0.1-0.1-0.2-0.2-0.4-0.2c0,0,0,0,0-0.1c0.6-0.1,1.2-0.2,1.8-0.3&#10;&#9;&#9;&#9;&#9;&#9;c0.6-0.1,0.9-0.7,0.7-1.1c0.2-0.1,0.4-0.3,0.3-0.6c-0.3-1.1-1-1.7-2-2.1c-0.7-0.6-1.5-0.9-2.5-0.3c0,0,0,0,0,0&#10;&#9;&#9;&#9;&#9;&#9;c-0.1,0-0.3,0-0.4,0c-0.5,0.1-0.8,0.6-0.5,1.1c0,0,0,0,0,0c0,0,0,0.1,0,0.1c-0.1,0-0.3,0.1-0.4,0.1c-0.6,0.3-1,1-0.9,1.7&#10;&#9;&#9;&#9;&#9;&#9;c0.1,0.4,0.2,0.7,0.5,1c0,0,0,0,0.1,0.1c0,0,0,0,0.1,0.1c0,0,0,0.1,0,0.1c-0.3,0.2-0.6,0.4-0.9,0.5c-0.6,0.3-0.5,1.2,0.1,1.4&#10;&#9;&#9;&#9;&#9;&#9;C442.2,225.3,443.2,225.4,444.8,224.6z" style="fill: rgb(216, 197, 163);" transform="matrix(1, 0, 0, 1, 7.275957614183426e-12, 1.8189894035458565e-12)"/></g></g><path d="M 180.209228515625 337.15081787109375 C 177.6363983154297 338.0932312011719 175.37283325195312 338.1839599609375 173.41854858398438 337.42303466796875 C 171.4705352783203 336.6598205566406 170.07118225097656 335.11700439453125 169.22048950195312 332.7945556640625 C 168.35374450683594 330.4283142089844 168.40721130371094 328.3355712890625 169.3809051513672 326.516357421875 C 170.35459899902344 324.6971130371094 172.16229248046875 323.3037109375 174.80397033691406 322.3360595703125 C 177.42689514160156 321.37530517578125 179.695556640625 321.2791442871094 181.6099853515625 322.0475769042969 C 183.52212524414062 322.8097229003906 184.91384887695312 324.38018798828125 185.78518676757812 326.75897216796875 C 186.63128662109375 329.0688781738281 186.55926513671875 331.1400146484375 185.56907653808594 332.9723815917969 C 184.57493591308594 334.81329345703125 182.78831481933594 336.20611572265625 180.209228515625 337.15081787109375 M 175.51092529296875 324.32421875 C 173.3324737548828 325.1221618652344 171.85067749023438 326.1938781738281 171.06553649902344 327.5393371582031 C 170.27810668945312 328.8785400390625 170.20770263671875 330.4307861328125 170.8543243408203 332.19610595703125 C 171.50782775878906 333.98016357421875 172.5610809326172 335.120849609375 174.0140838623047 335.61810302734375 C 175.47564697265625 336.1192932128906 177.2987823486328 335.96978759765625 179.48350524902344 335.1695251464844 C 181.64942932128906 334.37615966796875 183.123291015625 333.3215637207031 183.9050750732422 332.0057373046875 C 184.69313049316406 330.6875915527344 184.7626953125 329.14276123046875 184.11378479003906 327.3711853027344 C 183.4602813720703 325.58709716796875 182.4004669189453 324.4382019042969 180.93431091308594 323.9244689941406 C 179.46588134765625 323.40447998046875 177.6580810546875 323.5377197265625 175.51092529296875 324.32421875 ZM 179.791015625 354.8305358886719 L 187.07205200195312 350.8252258300781 C 187.98912048339844 350.32073974609375 188.5584716796875 349.7374267578125 188.7801055908203 349.0752868652344 C 189.00436401367188 348.4040832519531 188.87228393554688 347.6245422363281 188.3838653564453 346.7366943359375 C 187.7347869873047 345.5567626953125 186.94248962402344 344.87030029296875 186.00697326660156 344.6773376464844 C 185.0682373046875 344.478515625 183.8657989501953 344.7823486328125 182.399658203125 345.5888671875 L 176.4942169189453 348.83746337890625 L 175.55433654785156 347.1289367675781 L 186.80445861816406 340.9402160644531 L 187.56600952148438 342.3245544433594 L 186.1869354248047 343.44842529296875 L 186.23031616210938 343.52728271484375 C 186.97801208496094 343.5724792480469 187.67726135253906 343.82696533203125 188.32803344726562 344.2907409667969 C 188.9788055419922 344.7544860839844 189.51626586914062 345.37188720703125 189.94041442871094 346.1429138183594 C 190.68589782714844 347.4980773925781 190.9210968017578 348.7002258300781 190.64605712890625 349.7493896484375 C 190.3677978515625 350.79266357421875 189.51019287109375 351.7095642089844 188.07325744628906 352.5000305175781 L 180.73089599609375 356.5390930175781 L 179.791015625 354.8305358886719 ZM 188.08535766601562 367.74200439453125 C 186.99197387695312 366.2373046875 186.6066131591797 364.7373046875 186.92926025390625 363.24200439453125 C 187.25729370117188 361.7427978515625 188.26805114746094 360.3778991699219 189.96151733398438 359.1473693847656 C 191.6981201171875 357.885498046875 193.34474182128906 357.3276672363281 194.90138244628906 357.473876953125 C 196.4580078125 357.6200866699219 197.79869079589844 358.4671325683594 198.9234161376953 360.0149841308594 C 199.28787231445312 360.51654052734375 199.59840393066406 361.0572814941406 199.85499572753906 361.6372375488281 C 200.10768127441406 362.2117919921875 200.2650604248047 362.69488525390625 200.3271484375 363.0865478515625 L 198.63961791992188 363.5710754394531 C 198.52903747558594 363.1240234375 198.37066650390625 362.6622619628906 198.16452026367188 362.1857604980469 C 197.95443725585938 361.703857421875 197.7357635498047 361.3064880371094 197.5084686279297 360.9936828613281 C 195.9722442626953 358.8795471191406 193.85585021972656 358.8022155761719 191.15924072265625 360.76165771484375 C 189.88644409179688 361.6865234375 189.09568786621094 362.65667724609375 188.78697204589844 363.6721496582031 C 188.47433471679688 364.68218994140625 188.68638610839844 365.6941833496094 189.4231414794922 366.7080993652344 C 190.0501708984375 367.5710144042969 190.8835906982422 368.321044921875 191.92340087890625 368.9581604003906 L 190.5238800048828 369.9751281738281 C 189.66238403320312 369.5380554199219 188.84954833984375 368.7936706542969 188.08535766601562 367.74200439453125 ZM 198.36062622070312 380.00750732421875 C 197.06646728515625 378.6164245605469 196.46697998046875 377.1253967285156 196.56216430664062 375.534423828125 C 196.66188049316406 373.9483642578125 197.4658660888672 372.4537658691406 198.97412109375 371.0506286621094 C 200.48724365234375 369.6429748535156 202.03781127929688 368.89703369140625 203.6258087158203 368.8128662109375 C 205.2137908935547 368.7286682128906 206.59129333496094 369.3138122558594 207.75830078125 370.5682373046875 C 208.85719299316406 371.74945068359375 209.33645629882812 373.0427551269531 209.1960906982422 374.4480895996094 C 209.0602569580078 375.85833740234375 208.35781860351562 377.15374755859375 207.08872985839844 378.3343811035156 L 206.18817138671875 379.17218017578125 L 200.16015625 372.69256591796875 C 199.0842742919922 373.7480773925781 198.50827026367188 374.8074951171875 198.43214416503906 375.8708190917969 C 198.3466033935547 376.9338073730469 198.7510986328125 377.9460754394531 199.64564514160156 378.90765380859375 C 200.5856170654297 379.91802978515625 201.72882080078125 380.72113037109375 203.0752716064453 381.3169250488281 L 201.8086395263672 382.4952697753906 C 201.12127685546875 382.1968688964844 200.52235412597656 381.86627197265625 200.0118408203125 381.5035095214844 C 199.5013427734375 381.1407165527344 198.95094299316406 380.6420593261719 198.36062622070312 380.00750732421875 M 206.55125427246094 371.6638488769531 C 205.847412109375 370.90728759765625 205.04013061523438 370.5337829589844 204.12937927246094 370.5433654785156 C 203.2186279296875 370.55291748046875 202.29251098632812 370.92279052734375 201.3510284423828 371.6529846191406 L 205.92823791503906 376.5730895996094 C 206.82635498046875 375.7375793457031 207.32614135742188 374.8947448730469 207.42758178710938 374.04461669921875 C 207.53358459472656 373.1993408203125 207.24147033691406 372.40576171875 206.55125427246094 371.6638488769531 ZM 227.78199768066406 387.9385681152344 C 229.16180419921875 388.9085998535156 229.90374755859375 390.1310119628906 230.00782775878906 391.6058654785156 C 230.10806274414062 393.08612060546875 229.55047607421875 394.6907043457031 228.33506774902344 396.4195556640625 C 227.12350463867188 398.1429748535156 225.7977294921875 399.2115783691406 224.35777282714844 399.6253967285156 C 222.91781616210938 400.0392150878906 221.51339721679688 399.7649230957031 220.1444854736328 398.8025817871094 C 219.46275329589844 398.3233337402344 218.9264678955078 397.7588806152344 218.53564453125 397.1092529296875 C 218.1448211669922 396.4596252441406 217.9425506591797 395.7388610839844 217.92886352539062 394.9468994140625 L 217.8143310546875 394.8663635253906 L 216.5299835205078 395.98040771484375 L 215.38467407226562 395.17523193359375 L 225.86900329589844 380.26177978515625 L 227.46424865722656 381.38323974609375 L 224.91648864746094 385.0072937011719 C 224.3490447998047 385.8144836425781 223.80992126464844 386.52337646484375 223.29913330078125 387.134033203125 L 223.3809356689453 387.1915588378906 C 224.8588104248047 386.6658630371094 226.32582092285156 386.91485595703125 227.78199768066406 387.9385681152344 M 226.62124633789062 389.1028137207031 C 225.5359344482422 388.33984375 224.53285217285156 388.1032409667969 223.61199951171875 388.3930358886719 C 222.69497680664062 388.6773681640625 221.71694946289062 389.55853271484375 220.6779022216797 391.0364990234375 C 219.6427001953125 392.509033203125 219.14622497558594 393.73687744140625 219.1884765625 394.7200622558594 C 219.23072814941406 395.7032165527344 219.79452514648438 396.5762939453125 220.87982177734375 397.3392639160156 C 221.86151123046875 398.0294189453125 222.8434600830078 398.1859436035156 223.82566833496094 397.80889892578125 C 224.807861328125 397.4318542480469 225.76864624023438 396.5752258300781 226.70799255371094 395.2390441894531 C 227.66651916503906 393.8755798339844 228.14352416992188 392.6870422363281 228.13902282714844 391.67333984375 C 228.13067626953125 390.6651306152344 227.624755859375 389.80828857421875 226.62124633789062 389.1028137207031 ZM 232.97500610351562 406.4669189453125 L 231.27005004882812 405.5205383300781 L 237.50157165527344 394.2940673828125 L 239.20652770996094 395.2404479980469 L 232.97500610351562 406.4669189453125 M 239.05059814453125 391.1737365722656 C 239.2673797607422 390.783203125 239.5220947265625 390.55096435546875 239.8147430419922 390.47705078125 C 240.10157775878906 390.3998718261719 240.3907012939453 390.44219970703125 240.68215942382812 390.6039733886719 C 240.95611572265625 390.7560119628906 241.14202880859375 390.9774169921875 241.2399139404297 391.26812744140625 C 241.33456420898438 391.56463623046875 241.27511596679688 391.9052734375 241.0615692138672 392.28997802734375 C 240.8512725830078 392.6688537597656 240.5952606201172 392.89654541015625 240.2935333251953 392.97308349609375 C 239.98858642578125 393.055419921875 239.69912719726562 393.02056884765625 239.4251708984375 392.8684997558594 C 239.13372802734375 392.70672607421875 238.9481201171875 392.4778747558594 238.86837768554688 392.1820068359375 C 238.77955627441406 391.8887023925781 238.84030151367188 391.5526123046875 239.05059814453125 391.1737365722656 ZM 244.7938690185547 410.72705078125 C 245.10995483398438 410.8694152832031 245.42481994628906 410.9820251464844 245.73849487304688 411.0648193359375 C 246.04942321777344 411.1536865234375 246.30230712890625 411.2091064453125 246.4971466064453 411.2310791015625 L 245.8851776123047 412.589599609375 C 245.6468505859375 412.5992431640625 245.32998657226562 412.54791259765625 244.93455505371094 412.4355773925781 C 244.5303192138672 412.32659912109375 244.1792755126953 412.20501708984375 243.8814239501953 412.07086181640625 C 241.6141815185547 411.0495300292969 241.01724243164062 409.3475036621094 242.09059143066406 406.9647521972656 L 245.22850036621094 399.9989013671875 L 243.5508575439453 399.2431640625 L 243.9369354248047 398.3861083984375 L 245.947265625 398.4033203125 L 247.82028198242188 396.24188232421875 L 248.85057067871094 396.70599365234375 L 247.6266326904297 399.4230651855469 L 251.02749633789062 400.9550476074219 L 250.4073028564453 402.3318176269531 L 247.00643920898438 400.7998046875 L 243.90138244628906 407.6927185058594 C 243.58375549316406 408.3978271484375 243.50721740722656 409.01409912109375 243.67176818847656 409.54156494140625 C 243.83631896972656 410.0690002441406 244.21034240722656 410.46417236328125 244.7938690185547 410.72705078125 ZM 256.57763671875 415.1994323730469 C 256.9054870605469 415.3121337890625 257.2293701171875 415.395263671875 257.54931640625 415.4488525390625 C 257.86712646484375 415.5087585449219 258.1240234375 415.5406799316406 258.320068359375 415.54461669921875 L 257.835693359375 416.9537048339844 C 257.5992736816406 416.9851989746094 257.2790222167969 416.9632568359375 256.87493896484375 416.8877868652344 C 256.4623718261719 416.81646728515625 256.10162353515625 416.7276916503906 255.79270935058594 416.62152099609375 C 253.44110107421875 415.8131408691406 252.69007873535156 414.1732482910156 253.5396270751953 411.7018737792969 L 256.0232849121094 404.4768371582031 L 254.28321838378906 403.878662109375 L 254.5887908935547 402.9897155761719 L 256.5921630859375 402.8218688964844 L 258.25836181640625 400.4972839355469 L 259.3269958496094 400.8646240234375 L 258.3582458496094 403.6827697753906 L 261.8856506347656 404.89532470703125 L 261.394775390625 406.32330322265625 L 257.86737060546875 405.1107482910156 L 255.40972900390625 412.2601318359375 C 255.1583251953125 412.991455078125 255.13882446289062 413.6121520996094 255.35121154785156 414.1222229003906 C 255.56358337402344 414.63232421875 255.97239685058594 414.99139404296875 256.57763671875 415.1994323730469 ZM 269.5987854003906 420.3913879394531 C 267.7449645996094 419.9750671386719 266.4077453613281 419.083740234375 265.5871887207031 417.7174072265625 C 264.77313232421875 416.3525390625 264.591796875 414.6651306152344 265.0431823730469 412.65521240234375 C 265.4960021972656 410.6387634277344 266.35369873046875 409.1470947265625 267.6162414550781 408.18023681640625 C 268.8787536621094 407.21337890625 270.34588623046875 406.91766357421875 272.017578125 407.2930908203125 C 273.5917053222656 407.6465759277344 274.71795654296875 408.4427185058594 275.3963623046875 409.68145751953125 C 276.0812683105469 410.9216613769531 276.2337951660156 412.38739013671875 275.85400390625 414.0785827636719 L 275.5845031738281 415.2787170410156 L 266.9495544433594 413.33953857421875 C 266.658447265625 414.818359375 266.7819519042969 416.0179138183594 267.3200378417969 416.93817138671875 C 267.8501892089844 417.8634948730469 268.7559509277344 418.47003173828125 270.0373840332031 418.7578125 C 271.38385009765625 419.0601806640625 272.7808532714844 419.0766906738281 274.2283630371094 418.80731201171875 L 273.84930419921875 420.4952697753906 C 273.11358642578125 420.63751220703125 272.4326477050781 420.7032470703125 271.80645751953125 420.69244384765625 C 271.1802673339844 420.681640625 270.44439697265625 420.581298828125 269.5987854003906 420.3913879394531 M 271.6408996582031 408.87908935546875 C 270.6326904296875 408.6526794433594 269.7555847167969 408.8007507324219 269.0096130371094 409.3233337402344 C 268.263671875 409.8459167480469 267.7086181640625 410.6744384765625 267.34454345703125 411.80889892578125 L 273.9012451171875 413.2813415527344 C 274.1700134277344 412.08447265625 274.1060485839844 411.1067199707031 273.7093200683594 410.3479919433594 C 273.319091796875 409.59075927734375 272.6296081542969 409.10113525390625 271.6408996582031 408.87908935546875 ZM 290.4613037109375 423.1269836425781 L 291.19488525390625 414.84942626953125 C 291.28729248046875 413.80682373046875 291.1203918457031 413.00897216796875 290.6942138671875 412.45587158203125 C 290.2619934082031 411.8955383300781 289.54119873046875 411.57061767578125 288.5318298339844 411.4811706542969 C 287.1904296875 411.3623046875 286.1788635253906 411.63739013671875 285.49713134765625 412.3064880371094 C 284.8087463378906 412.9750061035156 284.3907165527344 414.1426696777344 284.24298095703125 415.8094787597656 L 283.64801025390625 422.5231628417969 L 281.70562744140625 422.35101318359375 L 282.839111328125 409.5611267089844 L 284.4129333496094 409.70062255859375 L 284.5771789550781 411.4720458984375 L 284.6668395996094 411.47998046875 C 285.1211853027344 410.8844299316406 285.7222595214844 410.4457702636719 286.4700622558594 410.1640319824219 C 287.21783447265625 409.88226318359375 288.030029296875 409.7802429199219 288.9065856933594 409.85791015625 C 290.44720458984375 409.99444580078125 291.57635498046875 410.4693298339844 292.2940368652344 411.28253173828125 C 293.0050964355469 412.0951232910156 293.2882385253906 413.3182373046875 293.1434631347656 414.9518127441406 L 292.4036865234375 423.2991027832031 L 290.4613037109375 423.1269836425781 ZM 302.60748291015625 420.5304870605469 L 302.7919921875 420.79742431640625 C 302.5983581542969 421.5807800292969 302.3202819824219 422.49554443359375 301.95770263671875 423.541748046875 C 301.58831787109375 424.5813903808594 301.20440673828125 425.5479431152344 300.8059387207031 426.4413757324219 L 299.3461608886719 426.46575927734375 C 299.539306640625 425.65576171875 299.755859375 424.648681640625 299.99578857421875 423.4444885253906 C 300.2291564941406 422.2471008300781 300.38983154296875 421.28759765625 300.477783203125 420.5660400390625 L 302.60748291015625 420.5304870605469 ZM 325.0119323730469 419.5439453125 C 325.353271484375 419.4834289550781 325.6768493652344 419.39898681640625 325.9826354980469 419.2906188964844 C 326.2895812988281 419.1888122558594 326.5296936035156 419.09210205078125 326.7030334472656 419.00042724609375 L 326.9631042480469 420.4675598144531 C 326.77166748046875 420.6098327636719 326.48095703125 420.7459716796875 326.09100341796875 420.87603759765625 C 325.6956481933594 421.0138244628906 325.337158203125 421.1112365722656 325.0155029296875 421.1682434082031 C 322.5670166015625 421.6022644042969 321.11468505859375 420.5326843261719 320.6585693359375 417.95947265625 L 319.3250732421875 410.4367370605469 L 317.5133056640625 410.75787353515625 L 317.3492431640625 409.8323059082031 L 319.0196228027344 408.7135925292969 L 319.3487854003906 405.8725280761719 L 320.4614562988281 405.67529296875 L 320.9815673828125 408.60955810546875 L 324.6543273925781 407.9585266113281 L 324.9178771972656 409.4453430175781 L 321.2451171875 410.09637451171875 L 322.5646667480469 417.54034423828125 C 322.69964599609375 418.3017883300781 322.9837341308594 418.8540344238281 323.4169006347656 419.197021484375 C 323.85009765625 419.5400085449219 324.38177490234375 419.6556396484375 325.0119323730469 419.5439453125 ZM 343.6636047363281 416.0452575683594 L 339.1623229980469 409.55584716796875 C 338.8782043457031 409.16290283203125 338.2974548339844 408.24822998046875 337.4200744628906 406.8117980957031 L 337.3341979980469 406.8387756347656 C 337.44476318359375 408.2365417480469 337.5006103515625 409.3265380859375 337.501708984375 410.10882568359375 L 337.43365478515625 418.00189208984375 L 335.2870178222656 418.6760559082031 L 328.1004943847656 407.4747619628906 L 330.0467834472656 406.8634948730469 C 331.8022766113281 409.6942138671875 333.1394348144531 411.8492126464844 334.0582580566406 413.32855224609375 C 334.9770812988281 414.807861328125 335.5561828613281 415.8174133300781 335.7955627441406 416.3571472167969 L 335.88140869140625 416.3301696777344 C 335.83026123046875 415.8780517578125 335.7910461425781 415.28594970703125 335.7637634277344 414.5538024902344 C 335.7301025390625 413.8236999511719 335.7181396484375 413.240478515625 335.72784423828125 412.8041687011719 L 335.7710876464844 405.065673828125 L 337.7841491699219 404.4334411621094 L 342.17724609375 410.77862548828125 C 342.99853515625 411.92523193359375 343.6223449707031 412.9102478027344 344.0486755371094 413.7336730957031 L 344.134521484375 413.7066955566406 C 344.0824279785156 413.4295654296875 344.0321044921875 412.9911804199219 343.9835205078125 412.3915100097656 C 343.9413146972656 411.78985595703125 343.7734069824219 408.5408935546875 343.4798278808594 402.64459228515625 L 345.40704345703125 402.0393371582031 L 345.86749267578125 415.35308837890625 L 343.6636047363281 416.0452575683594 ZM 357.0036926269531 410.6862487792969 L 355.2268371582031 411.48956298828125 L 349.93731689453125 399.7897033691406 L 351.7141418457031 398.98638916015625 L 357.0036926269531 410.6862487792969 M 348.35791015625 396.68463134765625 C 348.17388916015625 396.27764892578125 348.1395568847656 395.9346618652344 348.2548828125 395.6557312011719 C 348.3641357421875 395.3795166015625 348.57061767578125 395.1727600097656 348.8743591308594 395.0354309082031 C 349.1598815917969 394.9063720703125 349.4484558105469 394.8892822265625 349.7401428222656 394.9842224121094 C 350.0345764160156 395.0852355957031 350.27239990234375 395.3362121582031 350.45367431640625 395.7371520996094 C 350.6321716308594 396.1319885253906 350.662109375 396.4732971191406 350.54345703125 396.7610778808594 C 350.42755126953125 397.0549011230469 350.2268371582031 397.2663879394531 349.94134521484375 397.39544677734375 C 349.6376037597656 397.53277587890625 349.3432312011719 397.5451354980469 349.0581970214844 397.43255615234375 C 348.76983642578125 397.32879638671875 348.5364074707031 397.0794982910156 348.35791015625 396.68463134765625 ZM 369.10699462890625 404.64044189453125 C 367.49169921875 405.5626220703125 365.95855712890625 405.78155517578125 364.5075378417969 405.2972412109375 C 363.0531921386719 404.8071594238281 361.8070983886719 403.65313720703125 360.76922607421875 401.835205078125 C 359.7049255371094 399.9709777832031 359.3305969238281 398.273193359375 359.646240234375 396.7419128417969 C 359.9619140625 395.2106018066406 360.9505310058594 393.97064208984375 362.6121520996094 393.02203369140625 C 363.15057373046875 392.7146301269531 363.7220764160156 392.46514892578125 364.32659912109375 392.2735290527344 C 364.92535400390625 392.0852355957031 365.4227600097656 391.9816589355469 365.81884765625 391.9627990722656 L 366.1158752441406 393.6932067871094 C 365.6593933105469 393.75421142578125 365.18304443359375 393.8611145019531 364.6868591308594 394.0138854980469 C 364.18487548828125 394.16998291015625 363.7659606933594 394.3438720703125 363.43017578125 394.53558349609375 C 361.16064453125 395.8312683105469 360.85223388671875 397.9264831542969 362.5048828125 400.8212890625 C 363.2849426269531 402.1876220703125 364.1627502441406 403.0798034667969 365.1383361816406 403.49774169921875 C 366.1081237792969 403.9190368652344 367.1372375488281 403.8189697265625 368.2256774902344 403.19757080078125 C 369.1520080566406 402.6687316894531 369.98870849609375 401.92236328125 370.73577880859375 400.95849609375 L 371.593505859375 402.46087646484375 C 371.0647888183594 403.2693786621094 370.2359619140625 403.99591064453125 369.10699462890625 404.64044189453125 ZM 382.422119140625 395.76953125 C 380.89776611328125 396.9037170410156 379.35009765625 397.3364562988281 377.77911376953125 397.0677795410156 C 376.2135009765625 396.79510498046875 374.8158264160156 395.8323974609375 373.5861511230469 394.1796875 C 372.3525085449219 392.5216064453125 371.78070068359375 390.89874267578125 371.87078857421875 389.3110656738281 C 371.96087646484375 387.7234191894531 372.6932067871094 386.418212890625 374.06781005859375 385.3954772949219 C 375.3621826171875 384.4324035644531 376.70013427734375 384.0975341796875 378.0816955566406 384.3908386230469 C 379.4685974121094 384.6801452636719 380.67938232421875 385.5201110839844 381.71405029296875 386.9107666015625 L 382.4482727050781 387.8975830078125 L 375.3479919433594 393.180419921875 C 376.2794494628906 394.3653259277344 377.2695007324219 395.0538024902344 378.318115234375 395.2458190917969 C 379.3653564453125 395.4471740722656 380.4158020019531 395.1558532714844 381.469482421875 394.37188720703125 C 382.5766296386719 393.5481262207031 383.5 392.4996643066406 384.2395324707031 391.2264709472656 L 385.2722473144531 392.61444091796875 C 384.9004211425781 393.2650146484375 384.5062561035156 393.8241882324219 384.0898132324219 394.29193115234375 C 383.67333984375 394.7596740722656 383.1174621582031 395.252197265625 382.422119140625 395.76953125 M 375.0247497558594 386.71514892578125 C 374.19573974609375 387.33197021484375 373.73614501953125 388.0935363769531 373.64599609375 388.9998779296875 C 373.55584716796875 389.90618896484375 373.8221740722656 390.8672180175781 374.4449462890625 391.8829650878906 L 379.83636474609375 387.87158203125 C 379.1041259765625 386.8874206542969 378.321044921875 386.2984313964844 377.48712158203125 386.10455322265625 C 376.6585388183594 385.90673828125 375.8377380371094 386.1102600097656 375.0247497558594 386.71514892578125 ZM 402.2781677246094 371.9724426269531 C 403.1640930175781 372.7719421386719 403.5478515625 373.71990966796875 403.4294128417969 374.8163757324219 C 403.3154602050781 375.9078674316406 402.7180480957031 377.052490234375 401.6371765136719 378.2502136230469 C 400.49822998046875 379.51226806640625 399.41143798828125 380.3185119628906 398.3768005371094 380.6689453125 L 397.0330810546875 379.4563293457031 C 397.6766052246094 379.2109069824219 398.3019104003906 378.8861999511719 398.9089660644531 378.4821472167969 C 399.51605224609375 378.078125 400.0406799316406 377.6311340332031 400.48284912109375 377.1411437988281 C 401.1617431640625 376.38885498046875 401.56304931640625 375.7003479003906 401.6867980957031 375.0756530761719 C 401.81549072265625 374.4554443359375 401.6323547363281 373.9219970703125 401.1374206542969 373.475341796875 C 400.7662353515625 373.140380859375 400.3043212890625 373.015380859375 399.7516784667969 373.100341796875 C 399.194091796875 373.1808776855469 398.3172912597656 373.52557373046875 397.1212463378906 374.13446044921875 C 395.9856872558594 374.72607421875 395.126708984375 375.0958251953125 394.54425048828125 375.2436828613281 C 393.95733642578125 375.3965148925781 393.42535400390625 375.4237976074219 392.9482727050781 375.3255310058594 C 392.4712219238281 375.2272644042969 392.0149230957031 374.98162841796875 391.5793762207031 374.58856201171875 C 390.8023376464844 373.8873291015625 390.4744873046875 373.0167541503906 390.5957946777344 371.976806640625 C 390.7171325683594 370.93682861328125 391.2735595703125 369.86749267578125 392.2651062011719 368.76873779296875 C 393.1941223144531 367.7392883300781 394.3111572265625 366.9244079589844 395.6162109375 366.3240966796875 L 396.326904296875 367.8948974609375 C 395.0644836425781 368.49774169921875 394.0826416015625 369.18768310546875 393.38140869140625 369.9647216796875 C 392.7650451660156 370.6477355957031 392.4069519042969 371.25848388671875 392.3070983886719 371.7969970703125 C 392.207763671875 372.34490966796875 392.3461608886719 372.7886047363281 392.7223205566406 373.1280517578125 C 392.97967529296875 373.36029052734375 393.25775146484375 373.4900207519531 393.5565185546875 373.5171813964844 C 393.8507995605469 373.5492858886719 394.2113952636719 373.4930419921875 394.6382141113281 373.3484191894531 C 395.06060791015625 373.208740234375 395.79815673828125 372.8641052246094 396.8509216308594 372.3144836425781 C 398.2800598144531 371.5567626953125 399.38116455078125 371.16754150390625 400.1542053222656 371.1467590332031 C 400.9366760253906 371.1255187988281 401.6446838378906 371.4007568359375 402.2781677246094 371.9724426269531 ZM 414.5571594238281 361.3144226074219 L 407.73919677734375 356.5634765625 C 406.8804626464844 355.965087890625 406.1051940917969 355.71331787109375 405.4134216308594 355.8081970214844 C 404.7123718261719 355.90472412109375 404.0721740722656 356.3686828613281 403.4928283691406 357.2000732421875 C 402.7191162109375 358.3104248046875 402.4585876464844 359.33148193359375 402.7112731933594 360.2632141113281 C 402.9584655761719 361.191162109375 403.7685241699219 362.1334533691406 405.14141845703125 363.0901184082031 L 410.64666748046875 366.92633056640625 L 409.5318298339844 368.5262145996094 L 394.574951171875 358.1038818359375 L 395.6897888183594 356.5039978027344 L 400.21868896484375 359.65985107421875 C 400.76019287109375 360.0372009277344 401.1923828125 360.37896728515625 401.5152587890625 360.6852111816406 L 401.5838623046875 360.5867614746094 C 401.2962646484375 359.9150695800781 401.2095031738281 359.1883239746094 401.3236083984375 358.4065246582031 C 401.437744140625 357.6247253417969 401.75396728515625 356.8619079589844 402.2723083496094 356.1180114746094 C 403.1679992675781 354.8326416015625 404.144287109375 354.0787658691406 405.201171875 353.8564147949219 C 406.2635192871094 353.63787841796875 407.4620056152344 353.99359130859375 408.7966003417969 354.923583984375 L 415.6719970703125 359.71453857421875 L 414.5571594238281 361.3144226074219 ZM 407.5365905761719 348.4862060546875 L 408.5032043457031 346.6331481933594 L 416.2928771972656 347.5271911621094 C 418.063232421875 347.75140380859375 419.3103942871094 347.9696044921875 420.0343322753906 348.18182373046875 L 420.075927734375 348.1020202636719 C 419.7706298828125 347.82244873046875 419.2663879394531 347.3188171386719 418.563232421875 346.5910949707031 C 417.85723876953125 345.8544006347656 415.7171630859375 343.5425109863281 412.1430358886719 339.6554260253906 L 413.109619140625 337.8023986816406 L 423.5190734863281 349.4582214355469 C 424.54888916015625 350.6119689941406 425.1631774902344 351.65423583984375 425.36187744140625 352.58502197265625 C 425.5636901855469 353.5098571777344 425.4194641113281 354.44219970703125 424.9292297363281 355.38201904296875 C 424.6517333984375 355.91400146484375 424.3212890625 356.4033203125 423.93792724609375 356.8499755859375 L 422.5547790527344 356.1285095214844 C 422.8348693847656 355.7933654785156 423.0982360839844 355.3893737792969 423.34490966796875 354.91650390625 C 423.9615783691406 353.7343444824219 423.7375183105469 352.542236328125 422.6727294921875 351.34014892578125 L 421.37860107421875 349.8642883300781 L 407.5365905761719 348.4862060546875 ZM 425.67828369140625 337.6754150390625 C 425.1898193359375 337.4785461425781 424.86676025390625 337.2189636230469 424.7091369628906 336.89666748046875 C 424.54534912109375 336.5718994140625 424.5456848144531 336.2054748535156 424.7101745605469 335.79736328125 C 424.879638671875 335.37689208984375 425.13848876953125 335.10028076171875 425.4866943359375 334.96746826171875 C 425.8312072753906 334.8260192871094 426.2477111816406 334.8537292480469 426.7362060546875 335.05059814453125 C 427.2061462402344 335.239990234375 427.519287109375 335.5063781738281 427.67559814453125 335.8497009277344 C 427.8319091796875 336.1930236816406 427.82659912109375 336.57183837890625 427.65960693359375 336.9861145019531 C 427.5125732421875 337.3509216308594 427.27484130859375 337.61090087890625 426.94635009765625 337.7660217285156 C 426.6203918457031 337.91497802734375 426.19769287109375 337.884765625 425.67828369140625 337.6754150390625 Z" transform="matrix(1.136238932609558, 0, 0, 1.136238932609558, -69.07351684570312, -173.77796936035156)" style="white-space: pre; fill: rgb(51, 51, 51);"/></svg>