<?xml version="1.0" encoding="utf-8"?>
<svg id="master-artboard" viewBox="0 0 600 550" version="1.1" xmlns="http://www.w3.org/2000/svg" x="0px" y="0px" style="enable-background:new 0 0 1400 980;" width="600px" height="550px"><rect id="ee-background" x="0" y="0" width="600" height="550" style="fill: white; fill-opacity: 0; pointer-events: none;"/>












<g transform="matrix(1.8550593852996826, 0, 0, 1.8550593852996826, -70.65185546875, -1161.57666015625)">
	<g>
		<path class="st2" d="M156.2,698.6c-13.1,10.2-25.7,21.8-34.2,36.7c-5.2,9-8.7,19.1-11.4,29.3c-3,11.7-4.9,24-3.5,36&#10;&#9;&#9;&#9;c2.5,22.1,15.9,41.6,33.2,53.6c17.2,11.9,37.9,16.9,58.3,17.8c31.5,1.4,65.8-8.5,84.4-36.2c10.1-15,14.5-33.8,14.9-52.3&#10;&#9;&#9;&#9;c0.7-30.9-10-62.5-30.9-83.5c-20.9-21-52.1-30-79.1-20.4C176.5,683.7,166.1,690.9,156.2,698.6z" style="fill: rgb(255, 242, 0);"/>
		<path class="st2" d="M207.8,672c0.7-0.1,1.3-0.6,1.7-1.1c9.3-10,12.4-25.3,7.8-38.1c-0.5-1.3-1.5-2.9-2.9-2.6&#10;&#9;&#9;&#9;c-0.7,0.2-1.2,0.8-1.6,1.5c-7.2,10.8-10,24.5-7.5,37.3C205.5,670.4,206.3,672.2,207.8,672z" style="fill: rgb(255, 242, 0);"/>
		<path class="st2" d="M204.3,896.9c0.3-6.6,0-13.4-3-19.3c-8.6,11.1-12.7,25.6-11,39.5c4.6,0.5,9-2.7,11.2-6.8&#10;&#9;&#9;&#9;C203.6,906.3,204.1,901.5,204.3,896.9z" style="fill: rgb(255, 242, 0);"/>
		<path class="st2" d="M357.3,793.1c-8.5,3.8-17.5,6.8-26.8,6.5c-9.3-0.3-18.8-4.6-23.5-12.6c14.9-4,30.9-3.5,45.5,1.5&#10;&#9;&#9;&#9;C354.7,789.3,357.3,790.7,357.3,793.1z" style="fill: rgb(255, 242, 0);"/>
		<path class="st2" d="M325.4,681.8c-0.9,8.7-7.2,16.3-14.9,20.4c-7.7,4.1-16.8,5.2-25.5,4.9C294.8,694.2,309.5,685,325.4,681.8z" style="fill: rgb(255, 242, 0);"/>
		<path class="st2" d="M263.9,865.1c0.1,8.6,3.9,16.9,9.3,23.6c5.4,6.7,12.4,12,19.5,16.8c3-5.6,2-12.7-1.1-18.3&#10;&#9;&#9;&#9;c-3.1-5.6-8.1-9.8-13.3-13.5C273.8,870.5,269,867.6,263.9,865.1z" style="fill: rgb(255, 242, 0);"/>
		<path class="st2" d="M91.2,780.6c-16.5-4.7-34-6-51-3.8C54.6,787.7,75.4,789.2,91.2,780.6z" style="fill: rgb(255, 242, 0);"/>
		<path class="st2" d="M83.8,687.6c9,16,31.2,22.9,47.7,14.8C118.8,690.8,100.8,685.3,83.8,687.6z" style="fill: rgb(255, 242, 0);"/>
		<path class="st2" d="M122.4,854.4c-8.5,3.4-17.1,6.8-24.5,12c-7.4,5.3-13.8,12.7-15.9,21.5c6.9,0.5,13.7-1.9,20-4.6&#10;&#9;&#9;&#9;c6-2.6,12-5.8,16.2-10.7C122.5,867.6,124.8,860.5,122.4,854.4z" style="fill: rgb(255, 242, 0);"/>
		<path class="st2" d="M279.4,649.5c2,7-0.2,14.7-4.5,20.6c-4.4,5.8-10.7,9.9-17.3,12.9c3.6-3.5,4-9,5.2-13.9&#10;&#9;&#9;&#9;C264.8,660.2,270.6,651.6,279.4,649.5z" style="fill: rgb(255, 242, 0);"/>
		<path class="st2" d="M305.6,743.4c9.4-10.3,25.1-11.2,39.1-11.3c-0.3,5.9-5.7,10.3-11.2,12.3c-8.4,3-17.7,2.2-26.6,1.4&#10;&#9;&#9;&#9;C307,744.8,306.5,743.8,305.6,743.4z" style="fill: rgb(255, 242, 0);"/>
		<path class="st2" d="M297.4,832.6c6,13.1,18.9,22.9,33.1,25.1C326,843.7,312.2,833.2,297.4,832.6z" style="fill: rgb(255, 242, 0);"/>
		<path class="st2" d="M230.6,880.5c-6.6,9.5-5.1,23.7,3.4,31.6c4.3-9.5,4.1-21-0.6-30.3C232.4,881.4,231.5,881,230.6,880.5z" style="fill: rgb(255, 242, 0);"/>
		<path class="st2" d="M131.6,907.5c7-1.3,13.4-5.7,17-11.8c3.6-6.1,4.4-13.9,2.1-20.6C139.3,881.5,131.8,894.3,131.6,907.5z" style="fill: rgb(255, 242, 0);"/>
		<path class="st2" d="M93,826.8c2.8-2.5,5.5-5.7,5.8-9.4c-18.6-5.2-40.1,2.1-51.7,17.6C62.4,840.9,80.8,837.6,93,826.8z" style="fill: rgb(255, 242, 0);"/>
		<path class="st2" d="M106.3,739.9c-10.2-13.4-29.2-19.2-45.1-13.7C72.9,737.6,90.2,742.9,106.3,739.9z" style="fill: rgb(255, 242, 0);"/>
		<path class="st2" d="M152.4,633c-4.6,16.1,1.3,34.7,14.3,45.3C170.8,662.2,165,643.9,152.4,633z" style="fill: rgb(255, 242, 0);"/>
	</g>
	<g>
		<g>
			<path d="M 176.700006 741.299988 A 14.1 17.9 0 0 1 162.600006 759.199987 A 14.1 17.9 0 0 1 148.500006 741.299988 A 14.1 17.9 0 0 1 162.600006 723.399988 A 14.1 17.9 0 0 1 176.700006 741.299988 Z" class="st1" style="fill: rgb(255, 255, 255);"/>
			<path d="M 176.700006 737.099976 A 14.1 17.9 0 0 1 162.600006 754.999975 A 14.1 17.9 0 0 1 148.500006 737.099976 A 14.1 17.9 0 0 1 162.600006 719.199976 A 14.1 17.9 0 0 1 176.700006 737.099976 Z" class="st3" style="fill: rgb(94, 58, 25);"/>
		</g>
		<g>
			<path d="M 248.999994 741.299988 A 14.1 17.9 0 0 1 234.899994 759.199987 A 14.1 17.9 0 0 1 220.799994 741.299988 A 14.1 17.9 0 0 1 234.899994 723.399988 A 14.1 17.9 0 0 1 248.999994 741.299988 Z" class="st1" style="fill: rgb(255, 255, 255);"/>
			<path d="M 248.999994 737.099976 A 14.1 17.9 0 0 1 234.899994 754.999975 A 14.1 17.9 0 0 1 220.799994 737.099976 A 14.1 17.9 0 0 1 234.899994 719.199976 A 14.1 17.9 0 0 1 248.999994 737.099976 Z" class="st3" style="fill: rgb(94, 58, 25);"/>
		</g>
	</g>
	<path d="M 270.5 806.599976 A 71.800003 24.1 0 0 1 198.699997 830.699976 A 71.800003 24.1 0 0 1 126.899994 806.599976 A 71.800003 24.1 0 0 1 198.699997 782.499975 A 71.800003 24.1 0 0 1 270.5 806.599976 Z" class="st1" style="fill: rgb(255, 255, 255);"/>
	<path d="M 270.5 803 A 71.800003 24.1 0 0 1 198.699997 827.1 A 71.800003 24.1 0 0 1 126.899994 803 A 71.800003 24.1 0 0 1 198.699997 778.9 A 71.800003 24.1 0 0 1 270.5 803 Z" class="st3" style="fill: rgb(94, 58, 25);"/>
</g>


</svg>