<?xml version="1.0" encoding="utf-8"?>
<svg id="master-artboard" viewBox="0 0 600 550" version="1.1" xmlns="http://www.w3.org/2000/svg" x="0px" y="0px" style="enable-background:new 0 0 1400 980;" width="600px" height="550px"><rect id="ee-background" x="0" y="0" width="600" height="550" style="fill: white; fill-opacity: 0; pointer-events: none;"/>











<g transform="matrix(1.8593471050262453, 0, 0, 1.8593471050262453, -1935.6314697265625, -1164.4615478515627)">
	<g>
		<path class="st2" d="M1158.8,698.6c-13.1,10.2-25.7,21.8-34.2,36.7c-5.2,9-8.7,19.1-11.4,29.3c-3,11.7-4.9,24-3.5,36&#10;&#9;&#9;&#9;c2.5,22.1,15.9,41.6,33.2,53.6c17.2,11.9,37.9,16.9,58.3,17.8c31.5,1.4,65.8-8.5,84.4-36.2c10.1-15,14.5-33.8,14.9-52.3&#10;&#9;&#9;&#9;c0.7-30.9-10-62.5-30.9-83.5c-20.9-21-52.1-30-79.1-20.4C1179,683.7,1168.6,690.9,1158.8,698.6z" style="fill: rgb(75, 235, 35);"/>
		<path class="st2" d="M1210.3,672c0.7-0.1,1.3-0.6,1.7-1.1c9.3-10,12.4-25.3,7.8-38.1c-0.5-1.3-1.5-2.9-2.9-2.6&#10;&#9;&#9;&#9;c-0.7,0.2-1.2,0.8-1.6,1.5c-7.2,10.8-10,24.5-7.5,37.3C1208,670.4,1208.8,672.2,1210.3,672z" style="fill: rgb(75, 235, 35);"/>
		<path class="st2" d="M1206.8,896.9c0.3-6.6,0-13.4-3-19.3c-8.6,11.1-12.7,25.6-11,39.5c4.6,0.5,9-2.7,11.2-6.8&#10;&#9;&#9;&#9;C1206.2,906.3,1206.6,901.5,1206.8,896.9z" style="fill: rgb(75, 235, 35);"/>
		<path class="st2" d="M1359.8,793.1c-8.5,3.8-17.5,6.8-26.8,6.5c-9.3-0.3-18.8-4.6-23.5-12.6c14.9-4,30.9-3.5,45.5,1.5&#10;&#9;&#9;&#9;C1357.2,789.3,1359.9,790.7,1359.8,793.1z" style="fill: rgb(75, 235, 35);"/>
		<path class="st2" d="M1327.9,681.8c-0.9,8.7-7.2,16.3-14.9,20.4c-7.7,4.1-16.8,5.2-25.5,4.9C1297.3,694.2,1312,685,1327.9,681.8z" style="fill: rgb(75, 235, 35);"/>
		<path class="st2" d="M1266.4,865.1c0.1,8.6,3.9,16.9,9.3,23.6c5.4,6.7,12.4,12,19.5,16.8c3-5.6,2-12.7-1.1-18.3&#10;&#9;&#9;&#9;c-3.1-5.6-8.1-9.8-13.3-13.5C1276.3,870.5,1271.5,867.6,1266.4,865.1z" style="fill: rgb(75, 235, 35);"/>
		<path class="st2" d="M1093.7,780.6c-16.5-4.7-34-6-51-3.8C1057.1,787.7,1077.9,789.2,1093.7,780.6z" style="fill: rgb(75, 235, 35);"/>
		<path class="st2" d="M1086.3,687.6c9,16,31.2,22.9,47.7,14.8C1121.3,690.8,1103.3,685.3,1086.3,687.6z" style="fill: rgb(75, 235, 35);"/>
		<path class="st2" d="M1124.9,854.4c-8.5,3.4-17.1,6.8-24.5,12c-7.4,5.3-13.8,12.7-15.9,21.5c6.9,0.5,13.7-1.9,20-4.6&#10;&#9;&#9;&#9;c6-2.6,12-5.8,16.2-10.7C1125,867.6,1127.3,860.5,1124.9,854.4z" style="fill: rgb(75, 235, 35);"/>
		<path class="st2" d="M1281.9,649.5c2,7-0.2,14.7-4.5,20.6c-4.4,5.8-10.7,9.9-17.3,12.9c3.6-3.5,4-9,5.2-13.9&#10;&#9;&#9;&#9;C1267.3,660.2,1273.2,651.6,1281.9,649.5z" style="fill: rgb(75, 235, 35);"/>
		<path class="st2" d="M1308.1,743.4c9.4-10.3,25.1-11.2,39.1-11.3c-0.3,5.9-5.7,10.3-11.2,12.3c-8.4,3-17.7,2.2-26.6,1.4&#10;&#9;&#9;&#9;C1309.5,744.8,1309,743.8,1308.1,743.4z" style="fill: rgb(75, 235, 35);"/>
		<path class="st2" d="M1300,832.6c6,13.1,18.9,22.9,33.1,25.1C1328.5,843.7,1314.7,833.2,1300,832.6z" style="fill: rgb(75, 235, 35);"/>
		<path class="st2" d="M1233.1,880.5c-6.6,9.5-5.1,23.7,3.4,31.6c4.3-9.5,4.1-21-0.6-30.3C1234.9,881.4,1234,881,1233.1,880.5z" style="fill: rgb(75, 235, 35);"/>
		<path class="st2" d="M1134.2,907.5c7-1.3,13.4-5.7,17-11.8c3.6-6.1,4.4-13.9,2.1-20.6C1141.9,881.5,1134.3,894.3,1134.2,907.5z" style="fill: rgb(75, 235, 35);"/>
		<path class="st2" d="M1095.5,826.8c2.8-2.5,5.5-5.7,5.8-9.4c-18.6-5.2-40.1,2.1-51.7,17.6C1064.9,840.9,1083.3,837.6,1095.5,826.8&#10;&#9;&#9;&#9;z" style="fill: rgb(75, 235, 35);"/>
		<path class="st2" d="M1108.8,739.9c-10.2-13.4-29.2-19.2-45.1-13.7C1075.4,737.6,1092.7,742.9,1108.8,739.9z" style="fill: rgb(75, 235, 35);"/>
		<path class="st2" d="M1154.9,633c-4.6,16.1,1.3,34.7,14.3,45.3C1173.3,662.2,1167.5,643.9,1154.9,633z" style="fill: rgb(75, 235, 35);"/>
	</g>
	<g>
		<g>
			<path d="M 1179.199976 734.5 A 14.1 17.9 0 0 1 1165.099976 752.4 A 14.1 17.9 0 0 1 1150.999975 734.5 A 14.1 17.9 0 0 1 1165.099976 716.6 A 14.1 17.9 0 0 1 1179.199976 734.5 Z" class="st1" style="fill: rgb(255, 255, 255);"/>
			<path d="M 1179.199976 730.299988 A 14.1 17.9 0 0 1 1165.099976 748.199987 A 14.1 17.9 0 0 1 1150.999975 730.299988 A 14.1 17.9 0 0 1 1165.099976 712.399988 A 14.1 17.9 0 0 1 1179.199976 730.299988 Z" class="st3" style="fill: rgb(94, 58, 25);"/>
		</g>
		<g>
			<path d="M 1251.500025 734.5 A 14.1 17.9 0 0 1 1237.400024 752.4 A 14.1 17.9 0 0 1 1223.300024 734.5 A 14.1 17.9 0 0 1 1237.400024 716.6 A 14.1 17.9 0 0 1 1251.500025 734.5 Z" class="st1" style="fill: rgb(255, 255, 255);"/>
			<path d="M 1251.500025 730.299988 A 14.1 17.9 0 0 1 1237.400024 748.199987 A 14.1 17.9 0 0 1 1223.300024 730.299988 A 14.1 17.9 0 0 1 1237.400024 712.399988 A 14.1 17.9 0 0 1 1251.500025 730.299988 Z" class="st3" style="fill: rgb(94, 58, 25);"/>
		</g>
	</g>
	<path class="st1" d="M1201.3,805c-25.7,0-48.1-9.1-60.2-22.7c-0.8,3-1.3,6.1-1.3,9.3c0,25.3,27.5,45.9,61.4,45.9&#10;&#9;&#9;c33.9,0,61.4-20.5,61.4-45.9c0-3.2-0.4-6.3-1.3-9.3C1249.3,795.9,1226.9,805,1201.3,805z" style="fill: rgb(255, 255, 255);"/>
	<path class="st3" d="M1201.3,801.4c-25.7,0-48.1-9.1-60.2-22.7c-0.8,3-1.3,6.1-1.3,9.3c0,25.3,27.5,45.9,61.4,45.9&#10;&#9;&#9;c33.9,0,61.4-20.5,61.4-45.9c0-3.2-0.4-6.3-1.3-9.3C1249.3,792.3,1226.9,801.4,1201.3,801.4z" style="fill: rgb(94, 58, 25);"/>
</g>



</svg>